<?xml version="1.0" encoding="UTF-8" standalone="no"?>
<svg
   xmlns:dc="http://purl.org/dc/elements/1.1/"
   xmlns:cc="http://creativecommons.org/ns#"
   xmlns:rdf="http://www.w3.org/1999/02/22-rdf-syntax-ns#"
   xmlns:svg="http://www.w3.org/2000/svg"
   xmlns="http://www.w3.org/2000/svg"
   viewBox="0 0 666.66669 666.66669"
   height="666.66669"
   width="666.66669"
   xml:space="preserve"
   id="svg2"
   version="1.1"><metadata
     id="metadata8"><rdf:RDF><cc:Work
         rdf:about=""><dc:format>image/svg+xml</dc:format><dc:type
           rdf:resource="http://purl.org/dc/dcmitype/StillImage" /></cc:Work></rdf:RDF></metadata><defs
     id="defs6" /><g
     transform="matrix(1.3333333,0,0,-1.3333333,0,666.66667)"
     id="g10"><g
       transform="scale(0.1)"
       id="g12"><path
         id="path14"
         style="fill:#ffffff;fill-opacity:1;fill-rule:nonzero;stroke:none"
         d="M 0,0 H 5000 V 5000 H 0 Z" /><path
         id="path16"
         style="fill:#108f6e;fill-opacity:1;fill-rule:nonzero;stroke:none"
         d="m 3923.8,2359.57 -1.36,19.43 c 0,0 8.66,0.6 23.19,0.57 14.61,0.17 35.37,-0.52 60.2,-2.38 49.64,-3.58 115.49,-13.64 179.31,-32.02 64.09,-17.52 125.1,-44.75 168.94,-68.23 21.86,-11.97 40.13,-21.83 51.96,-30.35 12.14,-8 19.09,-12.56 19.09,-12.56 l -10.93,-16.13 c 0,0 -6.77,4.45 -18.6,12.25 -11.53,8.33 -29.38,17.93 -50.7,29.61 -42.79,22.91 -102.36,49.54 -165.08,66.68 -62.43,17.98 -126.96,27.84 -175.47,31.32 -24.25,1.82 -44.54,2.49 -58.64,2.33 -14.18,0.03 -21.91,-0.52 -21.91,-0.52" /><path
         id="path18"
         style="fill:#fce300;fill-opacity:1;fill-rule:nonzero;stroke:none"
         d="m 4444.9,2130.19 c -14.69,11.44 -23.63,27.25 -26.92,44.02 -3.09,16.92 -1.65,33.24 8.17,47.48 9.48,13.76 25.79,22.61 43.36,22.71 17.64,0.36 37.61,-6.53 54.86,-20.14 16.68,-14.26 26.18,-33.52 28.78,-50.97 2.52,-17.66 -2.39,-34.14 -14.59,-45.99 -12.18,-11.85 -29.11,-17.09 -46,-16.55 -17.07,0.43 -33.53,7.33 -47.66,19.44" /><path
         id="path20"
         style="fill:#108f6e;fill-opacity:1;fill-rule:nonzero;stroke:none"
         d="m 4451.83,2169.95 c 0,0 7.8,-3.91 18.86,-7.33 11.18,-3.3 24.28,-7.83 37.03,-6.42 0.12,12.57 -4.8,27.19 -11.13,37.18 -6.2,10.12 -12.35,17.17 -12.35,17.17 18.87,4.78 33.79,13.69 43.83,21.52 10.06,7.82 15.22,14.59 15.22,14.59 -22.39,11.5 -42.27,16.74 -59.21,18 -16.83,1.43 -31.9,-2.65 -43.28,-6.95 -23.06,-9.11 -34.6,-22.89 -34.6,-22.89 0,0 -7.48,-16.45 -8.15,-40.29 -0.54,-12.13 1.27,-25.06 5.02,-40.3 3.88,-15.09 10.82,-30.9 22.91,-46.46 0,0 5.81,6.28 12.03,17.1 6.21,10.85 12.83,26.26 13.82,45.08" /><path
         id="path22"
         style="fill:#ededed;fill-opacity:1;fill-rule:nonzero;stroke:none"
         d="m 4530.5,710.621 c 0,-92.73 -895.99,-167.91 -2001.25,-167.91 -1105.26,0 -2001.242,75.18 -2001.242,167.91 0,92.738 895.982,167.91 2001.242,167.91 1105.26,0 2001.25,-75.172 2001.25,-167.91" /><path
         id="path24"
         style="fill:#108f6e;fill-opacity:1;fill-rule:nonzero;stroke:none"
         d="m 1168.13,2402.85 -7.11,-19.7 c 0,0 -7.99,2.88 -22.63,7.4 -14.55,4.58 -35.56,10.72 -61.01,17.18 -50.85,13.14 -119.646,27.33 -189.22,35.71 -69.551,8.78 -139.664,10.93 -192.09,10.01 -26.183,-1.33 -48.082,-1.47 -63.277,-3.15 -15.211,-1.51 -23.902,-2.37 -23.902,-2.37 l -2.094,20.83 c 0,0 8.863,0.88 24.375,2.42 15.5,1.7 37.769,1.87 64.43,3.2 53.343,0.95 124.574,-1.26 195.113,-10.15 70.574,-8.51 140.265,-22.88 191.865,-36.21 25.84,-6.56 47.18,-12.81 62.07,-17.48 14.87,-4.59 23.48,-7.69 23.48,-7.69" /><path
         id="path26"
         style="fill:#fce300;fill-opacity:1;fill-rule:nonzero;stroke:none"
         d="m 509.148,2511.27 c 22.997,3.8 45.028,-0.08 61.321,-9.61 16.422,-10.39 27.125,-25.97 29.062,-44.14 1.938,-18.17 -4.961,-35.49 -17.004,-48.7 -11.941,-14.06 -28.894,-24.43 -48.968,-27.67 -10.141,-1.33 -19.766,-2.1 -29.086,-0.82 -9.301,1.22 -18.196,4.09 -26.254,8.33 -16.078,8.51 -28.977,22.45 -33.903,40.05 -4.925,17.61 -0.617,35.65 11.133,50.76 5.852,7.55 13.528,14.36 22.621,19.95 9.094,5.55 19.559,10.27 31.078,11.85" /><path
         id="path28"
         style="fill:#108f6e;fill-opacity:1;fill-rule:nonzero;stroke:none"
         d="m 539.219,2477.44 c 0,0 -9.395,-3.45 -20.489,-9.75 -11.171,-5.91 -23.632,-16.48 -30.21,-28.47 11.097,-7.93 25.843,-11.15 38.125,-14.04 12.199,-2.49 21.613,-2.85 21.613,-2.85 -9.024,-18.28 -11.067,-36.29 -11.035,-49.76 0.047,-13.47 2.148,-22.4 2.148,-22.4 19.988,8.51 35.102,19.94 46.828,32.08 11.899,11.34 20.227,23.79 26.035,35.32 11.661,23.07 12.848,42.49 12.848,42.49 0,0 -4.023,18.89 -21.012,39.12 -8.519,10.12 -20.371,20.56 -36.804,29.09 -16.383,7.7 -37.422,13.07 -63.93,13.99 0,0 1.242,-9.08 6.461,-21.7 5.187,-12.63 14.34,-28.8 29.422,-43.12" /><path
         id="path30"
         style="fill:#ffd200;fill-opacity:1;fill-rule:nonzero;stroke:none"
         d="m 2521.03,3680.64 c 0,0 -162.1,80.23 -190.47,256.52 -28.37,176.28 253.02,243.15 369.66,-48.63 0,0 -21.15,316.1 171.35,350.54 192.5,34.45 161.42,-350.15 103,-411.14 0,0 80.86,58.57 160.16,9.94 79.28,-48.63 53.69,-239.11 -202,-289.76 -255.68,-50.66 -411.7,132.53 -411.7,132.53" /><path
         id="path32"
         style="fill:#ffffff;fill-opacity:1;fill-rule:nonzero;stroke:none"
         d="m 2697.68,3631.74 c -44.94,99.3 -126.57,205.57 -127.39,206.63 l 4.46,3.43 c 0.83,-1.07 82.85,-107.84 128.03,-207.75 l -5.1,-2.31" /><path
         id="path34"
         style="fill:#ffffff;fill-opacity:1;fill-rule:nonzero;stroke:none"
         d="m 2837.04,3647.89 -5.53,0.95 66.9,388.79 5.54,-0.95 -66.91,-388.79" /><path
         id="path36"
         style="fill:#bce13e;fill-opacity:1;fill-rule:nonzero;stroke:none"
         d="m 1595.97,3332.51 c 0,0 -66.8,146.48 -204.52,146.44 -137.73,-0.05 -157.7,-145.49 -77.13,-253.45 0,0 -132.23,91.77 -322.289,84.44 -190.066,-7.34 -330.551,-147.82 -289.234,-304.83 41.32,-157.01 253.426,-192.82 314.023,-176.29 0,0 -209.343,-148.75 -126.707,-283.72 82.637,-134.98 341.567,0 341.567,0 l 364.29,787.41" /><path
         id="path38"
         style="fill:#ffffff;fill-opacity:1;fill-rule:nonzero;stroke:none"
         d="m 1318.03,2951.1 c -2.36,0.98 -236.75,97.63 -356.569,109.53 l 1.105,11.19 c 121.474,-12.08 357.394,-109.35 359.764,-110.34 l -4.3,-10.38" /><path
         id="path40"
         style="fill:#ffffff;fill-opacity:1;fill-rule:nonzero;stroke:none"
         d="m 965.344,2951.76 -6.653,9.07 c 47.039,34.49 139.859,69.02 143.789,70.47 l 3.9,-10.53 c -0.95,-0.35 -95.28,-35.45 -141.036,-69.01" /><path
         id="path42"
         style="fill:#ffffff;fill-opacity:1;fill-rule:nonzero;stroke:none"
         d="m 1210.08,2994.65 c -1.32,3.63 -32.29,89.16 -35.02,123.94 l 11.2,0.88 c 2.61,-33.27 34.06,-120.11 34.37,-120.98 l -10.55,-3.84" /><path
         id="path44"
         style="fill:#ffffff;fill-opacity:1;fill-rule:nonzero;stroke:none"
         d="m 1010.03,2608.56 -5.66,9.7 c 116.68,68.09 209.27,81.88 210.19,82.01 l 1.59,-11.12 c -0.9,-0.13 -91.48,-13.7 -206.12,-80.59" /><path
         id="path46"
         style="fill:#ffffff;fill-opacity:1;fill-rule:nonzero;stroke:none"
         d="m 1511.99,3179.35 c -3.69,4 -90.8,99.03 -114.57,176.32 l 10.74,3.3 c 23.02,-74.83 111.2,-171.05 112.09,-172.01 l -8.26,-7.61" /><path
         id="path48"
         style="fill:#ffd200;fill-opacity:1;fill-rule:nonzero;stroke:none"
         d="m 926.508,2292.65 -9.227,68.49 c -35.836,5.01 -74.461,8.03 -116.191,8.15 -113.438,0.38 -224.797,-20.21 -317.36,-57.82 l -4.117,-48.53 -23.343,36.59 c -15.465,-7.12 -30.309,-14.76 -44.508,-23.02 l 14.715,-89.71 -53.618,64.67 c -42.132,-30.37 -74.601,-65.14 -94.629,-104.35 -19.839,-39 -26.195,-81.2 -17.023,-125.91 7.91,-38.61 25.594,-71.23 50.156,-98.2 12.325,-13.51 26.231,-25.51 41.84,-36.28 15.746,-10.85 33.035,-20.32 51.606,-28.44 74.472,-32.63 171.519,-44.58 276.238,-36.92 l 24.82,78.75 34.543,-72.46 c 23.668,3.41 47.695,7.68 71.633,13.01 l -6.66,47.15 39.187,-39.4 c 9.254,2.36 18.5,4.86 27.727,7.52 165.793,47.93 270.473,126.57 333.603,193.74 63.14,67.1 84.78,122.53 84.78,122.53 0,0 -95.25,134.5 -329.442,181.45 l -34.73,-61.01" /><path
         id="path50"
         style="fill:#ffffff;fill-opacity:1;fill-rule:nonzero;stroke:none"
         d="m 445.355,2020.62 -2.085,11.04 771.04,145.27 2.09,-11.03 -771.045,-145.28" /><path
         id="path52"
         style="fill:#ffffff;fill-opacity:1;fill-rule:nonzero;stroke:none"
         d="m 703.609,2069.44 c -54.949,3.19 -163.839,50.7 -168.449,52.71 l 4.512,10.29 c 1.113,-0.48 111.652,-48.71 164.582,-51.79 l -0.645,-11.21" /><path
         id="path54"
         style="fill:#ffffff;fill-opacity:1;fill-rule:nonzero;stroke:none"
         d="m 747.816,1983.03 -10.898,2.72 c 11.75,46.98 72.535,109.74 75.117,112.37 l 8.047,-7.83 c -0.609,-0.63 -61.25,-63.23 -72.266,-107.26" /><path
         id="path56"
         style="fill:#ffffff;fill-opacity:1;fill-rule:nonzero;stroke:none"
         d="m 1005.94,2126.72 c -63.053,14.44 -128.944,81.19 -131.717,84.02 l 8.035,7.86 c 0.652,-0.67 66.375,-67.22 126.192,-80.93 l -2.51,-10.95" /><path
         id="path58"
         style="fill:#ffd200;fill-opacity:1;fill-rule:nonzero;stroke:none"
         d="m 4019.85,1628.65 -14.76,-65.79 c 31.08,-16.74 65.4,-32.58 103.54,-46.82 103.66,-38.79 212.52,-57.69 309.94,-54.64 l 20.22,43 8.96,-41.38 c 16.57,1.28 32.73,3.23 48.52,5.98 l 16.94,87.06 27.13,-77.34 c 48.85,13.52 90.33,34.33 121.95,63.42 31.36,28.95 51.47,65.42 58.23,109.42 5.85,38.01 0.72,73.85 -12.61,106.85 -6.7,16.53 -15.36,32.22 -25.99,47.37 -10.73,15.26 -23.35,29.79 -37.58,43.51 -57.08,55.08 -141.82,98.89 -240.23,127.37 l -49.38,-63.63 -7.06,78 c -22.82,4.89 -46.24,9.12 -69.95,12.36 l -9.88,-45.4 -22.5,49.33 c -9.28,0.97 -18.57,1.82 -27.92,2.51 -167.93,12.33 -290.35,-24.16 -370.87,-64.21 -80.5,-40 -119.08,-83.38 -119.08,-83.38 0,0 41.57,-155.34 239.93,-277.65 l 52.45,44.06" /><path
         id="path60"
         style="fill:#ffffff;fill-opacity:1;fill-rule:nonzero;stroke:none"
         d="m 4550.38,1703.56 -754.68,128.33 1.89,11.09 754.68,-128.33 -1.89,-11.09" /><path
         id="path62"
         style="fill:#ffffff;fill-opacity:1;fill-rule:nonzero;stroke:none"
         d="m 4427.96,1644.05 c -0.84,0.82 -85.63,82.39 -132.98,103.12 l 4.49,10.29 c 49.21,-21.53 132.77,-101.92 136.3,-105.33 l -7.81,-8.08" /><path
         id="path64"
         style="fill:#ffffff;fill-opacity:1;fill-rule:nonzero;stroke:none"
         d="m 4190.56,1767.71 -4.83,10.14 c 0.77,0.37 77.42,37.08 102.4,73.61 l 9.28,-6.34 c -26.69,-39.04 -103.59,-75.86 -106.85,-77.41" /><path
         id="path66"
         style="fill:#ffffff;fill-opacity:1;fill-rule:nonzero;stroke:none"
         d="m 4085.31,1681.34 c -0.38,0.84 -37.94,83.95 -88,116.76 l 6.17,9.39 c 52.83,-34.62 90.51,-118.03 92.09,-121.56 l -10.26,-4.59" /><path
         id="path68"
         style="fill:#bce13e;fill-opacity:1;fill-rule:nonzero;stroke:none"
         d="m 3350.6,727.379 -22.09,8.512 148.19,384.969 22.09,-8.51 -148.19,-384.971" /><path
         id="path70"
         style="fill:#bce13e;fill-opacity:1;fill-rule:nonzero;stroke:none"
         d="m 3624.88,727.379 -148.18,384.971 22.09,8.51 148.19,-384.969 -22.1,-8.512" /><path
         id="path72"
         style="fill:#bce13e;fill-opacity:1;fill-rule:nonzero;stroke:none"
         d="m 3554.01,944.281 h -128.05 v 23.66 h 128.05 v -23.66" /><path
         id="path74"
         style="fill:#bce13e;fill-opacity:1;fill-rule:nonzero;stroke:none"
         d="m 3582.1,859.66 h -185.58 v 23.66 h 185.58 v -23.66" /><path
         id="path76"
         style="fill:#91b31e;fill-opacity:1;fill-rule:nonzero;stroke:none"
         d="m 898.871,731.148 c 0,0 3.609,-14.128 13.356,-27.476 9.742,-13.352 24.535,-29.953 26.343,-37.172 1.801,-7.211 -6.855,-13.711 -15.156,-10.828 -8.301,2.887 -68.203,29.949 -82.277,40.789 -14.074,10.828 -18.047,14.789 -17.684,17.32 0.36,2.52 17.508,32.68 22.465,40.16 4.961,7.469 42.488,7.219 52.953,-22.793" /><path
         id="path78"
         style="fill:#91b31e;fill-opacity:1;fill-rule:nonzero;stroke:none"
         d="m 1054.84,811.18 c 0,0 9.93,-10.688 24.86,-17.758 14.94,-7.07 35.88,-14.582 40.91,-20.063 5.03,-5.468 0.53,-15.32 -8.14,-16.75 -8.67,-1.429 -74.22,-6.289 -91.76,-3.5 -17.54,2.77 -22.921,4.36 -23.812,6.75 -0.886,2.403 -0.242,37.082 0.54,46.02 0.785,8.93 33.862,26.66 57.402,5.301" /><path
         id="path80"
         style="fill:#0e1a34;fill-opacity:1;fill-rule:nonzero;stroke:none"
         d="m 1057.58,1337.56 c 0,0 28.93,-193.66 30.13,-244.37 1.21,-50.7 -30.13,-285.311 -30.13,-285.311 h -61.111 c 0,0 5.961,114.332 5.961,132.223 0,17.898 -5.961,173.968 -5.961,173.968 l 5.961,217.27 c 0,0 35.73,21.93 55.15,6.22" /><path
         id="path82"
         style="fill:#0e1a34;fill-opacity:1;fill-rule:nonzero;stroke:none"
         d="m 916.184,1330.76 c 0,0 -19.129,-49.68 -13.161,-152.07 5.961,-102.4 10.868,-126.26 10.868,-126.26 0,0 -68.532,-266.41 -77.473,-298.231 0,0 31.809,-22.859 66.605,-24.847 0,0 72.567,178.937 98.417,242.558 25.85,63.63 33.29,108.36 33.55,164.03 0.25,55.67 6.22,205.78 6.22,205.78 l -125.026,-10.96" /><path
         id="path84"
         style="fill:#ffffff;fill-opacity:1;fill-rule:nonzero;stroke:none"
         d="m 1009.88,985.809 -5.37,1.64 c 19.19,62.671 28.71,133.501 29.09,216.551 l 5.62,-0.02 c -0.39,-83.62 -9.98,-154.99 -29.34,-218.171" /><path
         id="path86"
         style="fill:#ff9a5c;fill-opacity:1;fill-rule:nonzero;stroke:none"
         d="m 1105.43,1365.46 c 0,0 -125.973,21.76 -171.598,47.03 -45.625,25.26 -40.008,47.72 -33.691,63.87 6.312,16.15 25.972,50.54 25.972,50.54 l 44.633,-31.94 -1.121,-9.96 -7.621,-17.38 c 0,0 14.562,-9.24 36.551,-21.44 21.985,-12.21 111.475,-53.25 111.475,-53.25 0,0 21.75,-17.94 -4.6,-27.47" /><path
         id="path88"
         style="fill:#ff9a5c;fill-opacity:1;fill-rule:nonzero;stroke:none"
         d="m 1102.05,1366.53 c 10.33,-11.14 23.71,-17.02 23.71,-17.02 0.98,-8.5 5.9,-12.11 8.65,-11.79 2.76,0.32 2.81,13.1 2.81,13.1 2.45,-5.89 12.11,-11.79 13.42,-8.18 1.31,3.6 0,9.49 0,9.49 0,0 3.93,-5.24 6.88,-5.24 2.94,0 6.54,2.62 5.23,9.17 -1.3,6.55 -5.23,16.37 -9.16,21.61 -3.93,5.23 -6.22,10.47 -14.73,12.44 -8.51,1.96 -11.46,0.65 -21.28,1.64 -9.82,0.97 -24.55,0 -24.55,0 l 9.02,-25.22" /><path
         id="path90"
         style="fill:#753519;fill-opacity:1;fill-rule:nonzero;stroke:none"
         d="m 1009.17,1765.72 c 0,0 -16.764,36.49 -64.092,22.68 -47.336,-13.8 -32.543,-58.18 -63.109,-76.92 -30.574,-18.73 -75.93,-28.59 -87.766,-80.86 -11.832,-52.26 24.652,-56.21 0,-87.76 -24.652,-31.55 -33.523,-54.23 -6.898,-86.78 26.621,-32.54 73.508,-22.67 102.824,-6.89 29.309,15.77 157.501,75.93 157.501,75.93 0,0 29.73,31.49 0,65.08 -29.73,33.58 -21.69,84.8 -21.69,84.8 0,0 10.84,1.97 14.79,31.55 3.94,29.58 -5.49,68.12 -31.56,59.17" /><path
         id="path92"
         style="fill:#ff9a5c;fill-opacity:1;fill-rule:nonzero;stroke:none"
         d="m 3333.15,4243.19 16.51,11.95 c 0,0 56.66,-69.2 149.36,-115.94 92.71,-46.74 124.51,-64.56 132.93,-66.09 8.43,-1.54 48.26,-8.43 62.05,-26.06 13.79,-17.62 15.33,-27.58 12.27,-28.34 -3.07,-0.76 -18.39,21.45 -18.39,21.45 0,0 15.33,-19.77 13.79,-27.15 -1.53,-7.37 -10.14,5.23 -13.21,8.3 -3.08,3.08 -10.76,11.99 -10.76,11.99 0,0 16.29,-21.21 16.91,-27.66 0.6,-6.46 -10.15,1.84 -18.45,11.06 -8.3,9.22 -17.52,13.53 -19.67,10.76 -2.15,-2.77 -3.07,-14.14 -6.45,-11.99 -3.39,2.15 -4,10.76 -5.54,16.91 -5.46,0.12 -30.45,9.12 -75.43,18.11 -44.98,9 -224.89,87.96 -265.87,138.94 -40.98,50.97 29.95,53.76 29.95,53.76" /><path
         id="path94"
         style="fill:#bce13e;fill-opacity:1;fill-rule:nonzero;stroke:none"
         d="m 4472.81,2397.12 v 0 c 15.81,18.55 25.48,39 28.47,60.58 2.1,20.73 -2.76,42.37 -14.38,63.42 0,0 5.27,-5.6 13.16,-14.01 7.78,-8.5 18.67,-19.39 28.69,-31.03 19.09,-24.1 38.18,-48.2 38.18,-48.2 -16.51,-19.19 -25.7,-39.39 -30.71,-61.34 -4.61,-21.7 -3.17,-43.69 5.01,-65.17 17.84,16.34 29.62,35.2 34.81,55.92 2.59,10.35 3.55,21.15 2.86,32.23 -0.73,11.07 -2.8,22.64 -7.91,33.25 0,0 2.65,-3.35 6.65,-8.39 3.77,-5.19 8.33,-12.46 13.1,-19.56 9.46,-14.29 18.91,-28.58 18.91,-28.58 0.22,-12.37 1.94,-23.92 5.14,-34.62 2.64,-11.04 6.32,-21.53 11.72,-31.02 10.69,-19.08 27.3,-34.81 49.73,-47.11 2.38,24.5 -2.3,47.84 -12.94,67.9 -5.37,9.99 -11.98,19.29 -20.37,27.24 -8.94,7.64 -19.19,14.17 -30.58,19.36 0,0 -4.73,7.16 -11.83,17.88 -3.55,5.37 -7.7,11.63 -12.13,18.34 -2.22,3.35 -4.51,6.82 -6.84,10.33 -2.61,3.32 -5.26,6.69 -7.92,10.06 -21.3,26.9 -42.6,53.8 -42.6,53.8 37.48,-28.56 84.82,-33.56 129.55,-15.06 -19.95,19.04 -43.44,29.78 -66.02,33.26 -22.92,3.3 -45.52,-0.94 -67.78,-13.23 0,0 -21.13,22.48 -42.24,44.96 -10.16,11.65 -22.19,21.4 -30.63,29.3 -8.59,7.75 -14.31,12.92 -14.31,12.92 10.59,-5.55 21.44,-9.57 32.5,-12.11 11.15,-2.44 22.29,-3.6 32.97,-3.83 21.71,-0.07 43.92,5.85 65.08,18.27 -11.19,8.2 -22.66,14.52 -34.11,18.88 -11.3,4.52 -23.87,5.87 -35.42,6 -23.47,-0.05 -45.74,-7.82 -65.87,-22.82 0,0 -5.73,5.17 -14.31,12.92 -9.15,7.08 -21.35,16.52 -33.55,25.96 -12.21,9.43 -24.29,19.03 -34.22,25.02 -9.67,6.36 -16.12,10.59 -16.12,10.59 11.34,-3.89 22.73,-6.23 34.08,-7.09 11.09,-1.25 21.95,-1.3 32.84,0.33 21.7,3.19 43.02,12.31 62.32,27.61 -25.04,12.61 -49.29,18.45 -72.55,14.98 -23.35,-3.5 -44.34,-14.46 -62.15,-32.23 0,0 -6.44,4.23 -16.11,10.59 -9.71,6.28 -23.44,13.39 -36.8,21.08 -6.72,3.77 -13.45,7.55 -19.76,11.08 -6.53,3.12 -12.61,6.04 -17.83,8.53 -10.43,5 -17.4,8.33 -17.4,8.33 23.45,-4.6 46.39,-2.8 67.2,3.02 21.01,6.28 40.81,18.37 57.71,36.29 -13.27,4.56 -26.22,7.25 -38.61,8.06 -6.19,0.4 -12.21,0.37 -18.11,-0.2 -6.02,-0.79 -11.85,-2.03 -17.48,-3.7 -22.53,-6.71 -41.64,-20.5 -56.61,-40.65 0,0 -2.95,1.41 -8.13,3.88 -5.31,2.16 -12.9,5.24 -22.01,8.94 -18.04,7.84 -42.82,16.42 -67.76,24.5 -25.12,7.5 -50.51,14.09 -69.87,17.71 -19.27,3.99 -32.43,5.26 -32.43,5.26 l -0.29,-3.2 c 0,0 9.11,-0.97 22.72,-3.43 13.63,-2.35 31.63,-6.46 49.51,-11 17.76,-5.07 35.57,-9.93 48.56,-14.78 13.09,-4.48 21.82,-7.47 21.82,-7.47 -3.4,-24.79 -0.89,-48.43 6.81,-68.52 7.91,-19.71 20.19,-38 37.83,-52.08 6.75,23.27 7.05,45.56 0.7,66.08 -6.13,20.96 -19.98,37.67 -39.23,52.24 0,0 7.12,-2.89 17.8,-7.22 10.64,-4.42 25.08,-9.77 38.78,-16.77 13.82,-6.72 27.83,-13.07 38.02,-18.44 10.05,-5.65 16.76,-9.41 16.76,-9.41 -7.22,-24.21 -8.01,-47.49 -3.19,-68.27 4.61,-21.23 14.13,-41.15 29.85,-57.31 10.03,21.98 13.51,43.91 10.13,65 -1.69,10.53 -5.07,20.85 -10.1,30.78 -5.26,9.53 -12.41,18.3 -21.02,26.61 0,0 6.7,-3.77 16.76,-9.41 10.29,-5.24 22.78,-14.27 35.71,-22.56 26.21,-16.16 50.15,-35.5 50.15,-35.5 -10.65,-22.89 -14.79,-45.82 -12.99,-67.09 1.87,-21.26 8.05,-42.91 21.29,-61.28 13.08,20.39 19.7,41.69 19.45,63.16 -0.17,10.67 -1.82,21.63 -5.55,31.96 -3.97,10.03 -9.68,19.86 -17.04,29.27 0,0 6.09,-4.68 15.23,-11.72 9.42,-6.68 20.76,-17.07 32.12,-27.43 11.4,-10.31 22.81,-20.61 31.36,-28.34 4.42,-3.72 7.39,-7.54 9.79,-9.9 2.29,-2.45 3.61,-3.85 3.61,-3.85 -13.84,-21.24 -21.3,-43.53 -22.67,-65.11 -0.68,-10.8 0.18,-21.44 2.63,-31.8 2.34,-10.46 5.31,-21.54 10.41,-31.84" /><path
         id="path96"
         style="fill:#91b31e;fill-opacity:1;fill-rule:nonzero;stroke:none"
         d="m 960.52,3801.53 v 0 c -20.665,-20.29 -34.118,-43.49 -39.891,-68.53 -6.051,-25.2 -3.477,-51.63 7.141,-78.05 0,0 -5.399,7.41 -13.489,18.52 -8.281,10.97 -18.64,26.08 -28.754,41.36 -10.23,15.2 -20.461,30.4 -28.129,41.8 -3.918,5.65 -6.89,10.54 -8.957,13.98 -2.089,3.41 -3.285,5.37 -3.285,5.37 21.477,21.11 35.582,45.26 42.145,70.57 3.273,12.66 4.652,25.63 4.062,38.74 -0.168,13.26 -1.914,26.77 -5.84,40.26 -22.414,-18.41 -37.945,-40.33 -45.96,-64.88 -7.493,-24.27 -6.79,-50.72 1.542,-78.07 0,0 -10.652,17.42 -21.3,34.83 -5.258,8.75 -10.805,17.33 -14.492,24.03 -3.653,6.73 -6.09,11.22 -6.09,11.22 1.988,29.86 -4.145,56.04 -16.098,79.18 -11.285,23.42 -29.82,43.24 -55.531,59.39 -4.574,-29.06 -0.664,-57.26 10.527,-81.89 11.805,-24.28 32.184,-44.2 57.77,-58.57 0,0 1.218,-2.25 3.351,-6.17 2.09,-3.95 5.145,-9.55 9.25,-16.02 7.988,-13.07 18.641,-30.49 29.297,-47.91 10.348,-17.61 21.969,-34.41 30.512,-47.12 8.547,-12.7 14.242,-21.17 14.242,-21.17 -21.125,19.04 -45.82,30.62 -71.055,36.03 -25.277,5.36 -52.484,3.63 -80.039,-5.9 10.758,-11.78 22.317,-21.53 34.426,-29.13 12.195,-7.52 25.449,-12.44 38.715,-15.49 26.683,-5.99 54.57,-3.31 82.301,8.03 0,0 5.136,-7.6 12.843,-19 8.11,-11.13 18.911,-25.96 29.715,-40.8 21.215,-29.96 44.18,-58.6 44.18,-58.6 -11.289,8.73 -23.191,15.65 -35.516,20.79 -12.05,5.36 -24.582,8.91 -37.445,10.63 -25.711,3.42 -52.738,-0.42 -79.516,-12.03 23.172,-21.37 48.645,-34.79 75.493,-38.97 27,-4.07 54.718,0.41 81.761,13.44 0,0 5.637,-7.24 14.094,-18.09 8.3,-10.99 20.04,-25.09 31.73,-39.24 11.68,-14.15 23.36,-28.3 32.12,-38.91 9.01,-10.39 15.02,-17.33 15.02,-17.33 -46.72,32.54 -100.722,37.26 -153.1,10.86 h 0.007 c 24.188,-19.82 50.555,-31.37 77.336,-34.29 26.877,-2.84 54.537,3.25 80.857,17.55 0,0 6.01,-6.93 15.02,-17.32 8.94,-10.46 21.06,-24.24 33.48,-37.75 12.33,-13.58 24.66,-27.17 33.91,-37.36 9.43,-10.01 15.72,-16.69 15.72,-16.69 -48.05,30.54 -102.39,32.51 -153.22,3.81 49.78,-37.55 107.05,-40.66 158.56,-9.48 0,0 10.7,-11.32 26.76,-28.31 16.39,-16.68 37.91,-39.23 60.18,-61.05 22.03,-22.06 44.55,-43.62 61.6,-59.63 16.99,-16.05 28.63,-26.46 28.63,-26.46 l 2.55,2.86 c 0,0 -32.62,29.53 -64.07,60.36 -15.88,15.25 -31.31,30.96 -43.08,42.55 -11.56,11.78 -19.27,19.64 -19.27,19.64 16.52,25.1 24.99,51.66 25.54,78.05 0.81,26.65 -6.41,53.01 -21.41,78.11 -34.21,-46.75 -38.05,-101.12 -9.55,-150.59 0,0 -25.69,26.15 -50.65,52.99 -12.66,13.26 -25.02,26.79 -34.2,37.03 -9.22,10.19 -15.38,16.98 -15.38,16.98 34.82,48.64 38.64,104.58 10.92,155.69 -36.41,-45.24 -42.33,-99.13 -16.13,-149.94 0,0 -6.12,6.83 -15.3,17.06 -9,10.39 -21.01,24.23 -33.02,38.08 -12.14,13.73 -23.81,27.86 -32.5,38.51 -8.75,10.6 -14.58,17.67 -14.58,17.67 18.7,23.56 29.25,49.08 32.38,75.35 3.29,26.39 -1.17,53.26 -13.78,79.29 -19.25,-21.62 -31.08,-45.66 -35.16,-70.97 -3.99,-25.21 -0.7,-52.09 11.62,-77.68 0,0 -5.83,7.07 -14.58,17.67 -8.456,10.83 -19.733,25.28 -31.011,39.73 -22.898,28.62 -44.109,58.52 -44.109,58.52 19.922,22.49 32.156,47.52 36.613,73.33 4.223,25.73 2.348,53.05 -8.433,79.53" /><path
         id="path98"
         style="fill:#ff9a5c;fill-opacity:1;fill-rule:nonzero;stroke:none"
         d="m 2831.45,4150.18 c -9.24,5.46 -14.21,11.46 -14.21,11.46 0,0 -3.21,6.87 -8.81,11.67 -5.61,4.81 -13.94,5.99 -13.94,5.99 0,0 5.36,-18.25 11.37,-22.95 2.96,-2.31 5.74,-1.06 7.82,0.79 4.11,-10.17 10.69,-18.04 10.69,-18.04 0,0 16.32,5.62 7.08,11.08" /><path
         id="path100"
         style="fill:#1a6652;fill-opacity:1;fill-rule:nonzero;stroke:none"
         d="m 3963.28,2253.79 c 0,-789.45 -639.97,-1429.419 -1429.42,-1429.419 -789.46,0 -1429.43,639.969 -1429.43,1429.419 0,789.45 639.97,1429.43 1429.43,1429.43 789.45,0 1429.42,-639.98 1429.42,-1429.43" /><path
         id="path102"
         style="fill:#19614f;fill-opacity:1;fill-rule:nonzero;stroke:none"
         d="m 2821.41,1253 c -705.69,0 -1277.77,572.08 -1277.77,1277.76 0,475.59 259.85,890.46 645.3,1110.46 -622.81,-154.33 -1084.51,-716.91 -1084.51,-1387.43 0,-789.45 639.97,-1429.419 1429.43,-1429.419 652.03,0 1202.05,436.579 1373.79,1033.349 C 3682.27,1494.75 3280.1,1253 2821.41,1253" /><path
         id="path104"
         style="fill:#ff9a5c;fill-opacity:1;fill-rule:nonzero;stroke:none"
         d="m 3018.39,4147.26 c 0,0 -34.12,-30.72 -45.55,-30.72 -11.42,0 -125.12,34.05 -146.56,38.56 -21.45,4.52 -20.32,-2.26 -28.79,-7.9 -8.47,-5.65 18.14,-22.74 18.14,-22.74 0,0 101.53,-51.76 154.02,-64.19 52.49,-12.41 94.45,30.14 94.45,30.14 0,0 13.75,55.22 -45.71,56.85" /><path
         id="path106"
         style="fill:#108f6e;fill-opacity:1;fill-rule:nonzero;stroke:none"
         d="m 2610.06,4116.09 c 0,0 79.81,-8.72 134.94,5.3 0,0 34.16,-57.33 47.07,-78.5 l -5.61,-27.34 c 0,0 -46.75,-59.1 -128.77,-62.63 0,0 -59.98,82.91 -47.63,163.17" /><path
         id="path108"
         style="fill:#108f6e;fill-opacity:1;fill-rule:nonzero;stroke:none"
         d="m 2735.3,4019.29 c -16.35,0 -28.57,6.55 -29.3,6.94 l 5.66,10.39 c 0.21,-0.1 20.67,-10.89 41.74,-1.82 18.61,8.01 32.56,28.76 41.46,61.67 10.12,37.46 5.06,67.38 -14.63,86.51 -22.96,22.31 -59.53,24.39 -85.56,16.54 -53.33,-16.09 -47.91,-91 -47.85,-91.75 l -11.79,-0.97 c -0.07,0.85 -6.3,85.19 56.22,104.04 35.3,10.63 74.35,2.86 97.22,-19.36 16.01,-15.57 32.1,-45.21 17.81,-98.1 -9.9,-36.67 -26.19,-60.06 -48.36,-69.52 -7.91,-3.37 -15.63,-4.57 -22.62,-4.57" /><path
         id="path110"
         style="fill:#ff9a5c;fill-opacity:1;fill-rule:nonzero;stroke:none"
         d="m 2797.28,4163.98 c 0,0 -10.26,3.96 -14.36,-3.04 -4.25,-7.25 12.88,-12.95 27.36,-11.52 14.49,1.42 1.5,12 -13,14.56" /><path
         id="path112"
         style="fill:#ff9a5c;fill-opacity:1;fill-rule:nonzero;stroke:none"
         d="m 2797.01,4153.75 c 0,0 -10.13,3.19 -17.04,-2.75 -6.91,-5.94 15.31,-14.32 32.28,-12.8 16.96,1.52 1.74,12.81 -15.24,15.55" /><path
         id="path114"
         style="fill:#91b31e;fill-opacity:1;fill-rule:nonzero;stroke:none"
         d="m 3120.3,3310.75 c 0,0 -4.04,-15.81 -14.95,-30.75 -10.9,-14.95 -27.46,-33.53 -29.47,-41.6 -2.02,-8.08 7.66,-15.35 16.95,-12.12 9.3,3.23 76.34,33.52 92.08,45.64 15.75,12.11 20.2,16.56 19.8,19.38 -0.41,2.83 -19.6,36.59 -25.15,44.95 -5.55,8.36 -47.55,8.09 -59.26,-25.5" /><path
         id="path116"
         style="fill:#ff9a5c;fill-opacity:1;fill-rule:nonzero;stroke:none"
         d="m 2795.05,4144.07 c 0,0 -8.93,3.08 -15.08,-3.27 -6.16,-6.36 13.55,-15 28.64,-13.37 15.1,1.63 7.95,15.56 -13.56,16.64" /><path
         id="path118"
         style="fill:#108f6e;fill-opacity:1;fill-rule:nonzero;stroke:none"
         d="m 2618.6,4032.68 c 0,0 -219.88,49.65 -228,49.7 -8.11,0.06 -35.49,5.12 -48.67,-13.13 0,0 2.03,-11.15 14.19,-17.24 12.18,-6.08 28.4,5.99 28.4,5.99 l 265.67,-93.62 c 0,0 16.9,46.95 -31.59,68.3" /><path
         id="path120"
         style="fill:#108f6e;fill-opacity:1;fill-rule:nonzero;stroke:none"
         d="m 2345.63,4066.86 c 1.37,-3.32 4.6,-8.76 11.75,-12.33 1.89,-0.94 4.04,-1.42 6.42,-1.42 6.03,0 12.19,2.96 15.8,5.07 -10.53,7.23 -21.88,8.83 -29.88,8.83 -1.59,0 -2.97,-0.07 -4.09,-0.15 m 18.17,-19.37 c -3.26,0 -6.26,0.67 -8.93,2.01 -13.27,6.64 -15.62,18.74 -15.71,19.25 l -0.5,2.75 2.75,0.51 c 0.13,0.03 3.34,0.62 8.31,0.62 9.7,0 23.93,-2.16 36.57,-12.45 l 2.8,-2.27 -2.89,-2.16 c -0.45,-0.34 -11.23,-8.26 -22.4,-8.26" /><path
         id="path122"
         style="fill:#ffd200;fill-opacity:1;fill-rule:nonzero;stroke:none"
         d="m 3772.91,1116.61 h -396.18 l 66.85,77.01 h 396.18 l -66.85,-77.01" /><path
         id="path124"
         style="fill:#afebeb;fill-opacity:1;fill-rule:nonzero;stroke:none"
         d="M 2395.52,3727.18 H 2206.7 c -19.28,172.89 113.76,319.57 132.95,339.71 1.17,-3.73 4.88,-12.22 15.22,-17.39 2.28,-1.14 4.79,-1.8 7.51,-1.96 -25.81,-26.64 -39.15,-64.87 -31.82,-110.38 8.31,-51.65 28.09,-95.05 51.92,-130.6 6.37,-46.42 13.04,-79.38 13.04,-79.38" /><path
         id="path126"
         style="fill:#afe1b5;fill-opacity:1;fill-rule:nonzero;stroke:none"
         d="m 2382.48,3806.56 c -23.83,35.55 -43.61,78.95 -51.92,130.6 -7.33,45.51 6.01,83.74 31.82,110.38 0.46,-0.04 0.94,-0.05 1.42,-0.05 7.69,0 15.19,3.76 19.27,6.21 -20.26,-63.26 -10.81,-172.57 -0.59,-247.14" /><path
         id="path128"
         style="fill:#7dd3cc;fill-opacity:1;fill-rule:nonzero;stroke:none"
         d="m 2363.8,4053.11 c -2.38,0 -4.53,0.48 -6.42,1.42 -7.15,3.57 -10.38,9.01 -11.75,12.33 1.12,0.08 2.5,0.15 4.09,0.15 8,0 19.35,-1.6 29.88,-8.83 -3.61,-2.11 -9.77,-5.07 -15.8,-5.07" /><path
         id="path130"
         style="fill:#7dd3cc;fill-opacity:1;fill-rule:nonzero;stroke:none"
         d="m 2363.8,4047.49 c -0.48,0 -0.96,0.01 -1.42,0.05 -2.72,0.16 -5.23,0.82 -7.51,1.96 -10.34,5.17 -14.05,13.66 -15.22,17.39 1.48,1.56 2.28,2.36 2.28,2.36 3.01,0.44 5.88,0.63 8.61,0.63 21.45,0 33.98,-11.88 33.98,-11.88 -0.5,-1.41 -0.98,-2.84 -1.45,-4.3 -4.08,-2.45 -11.58,-6.21 -19.27,-6.21 m -14.08,19.52 c -1.59,0 -2.97,-0.07 -4.09,-0.15 1.37,-3.32 4.6,-8.76 11.75,-12.33 1.89,-0.94 4.04,-1.42 6.42,-1.42 6.03,0 12.19,2.96 15.8,5.07 -10.53,7.23 -21.88,8.83 -29.88,8.83" /><path
         id="path132"
         style="fill:#0e1a34;fill-opacity:1;fill-rule:nonzero;stroke:none"
         d="m 3105.08,3941.69 c 0,0 -152.56,-120.64 -170.01,-162.34 -17.46,-41.71 68.86,-130.93 68.86,-130.93 0,0 81.46,-289.99 109.59,-338.48 0,0 46.55,12.6 68.86,26.18 0,0 -27.16,261.86 -39.76,296.78 0,0 197.89,185.08 231.81,239.96 33.93,54.87 -245.8,87.88 -269.35,68.83" /><path
         id="path134"
         style="fill:#91b31e;fill-opacity:1;fill-rule:nonzero;stroke:none"
         d="m 3206.18,3464.54 c 0,0 3.49,-15.95 0.45,-34.19 -3.05,-18.25 -9.51,-42.28 -7.68,-50.4 1.81,-8.13 13.74,-10.28 20.59,-3.22 6.85,7.05 53.17,64.2 61.81,82.1 8.64,17.89 10.62,23.86 8.99,26.2 -1.63,2.34 -33.92,23.9 -42.63,28.89 -8.72,4.98 -46.13,-14.11 -41.53,-49.38" /><path
         id="path136"
         style="fill:#ffffff;fill-opacity:1;fill-rule:nonzero;stroke:none"
         d="m 3001.12,3648.33 c -1.95,64.52 105.86,168.42 110.45,172.81 l 3.89,-4.06 c -1.11,-1.05 -110.61,-106.55 -108.72,-168.58 l -5.62,-0.17" /><path
         id="path138"
         style="fill:#0e1a34;fill-opacity:1;fill-rule:nonzero;stroke:none"
         d="m 3015.63,3634.03 188.01,-171.23 c 0,0 26.94,28.34 41.11,50.78 0,0 -68.5,133.45 -96.84,160.6 -28.35,27.17 -132.28,-40.15 -132.28,-40.15" /><path
         id="path140"
         style="fill:#91b31e;fill-opacity:1;fill-rule:nonzero;stroke:none"
         d="m 3587.84,1219.91 c 0,0 -10.36,-12.62 -26.57,-21.53 -16.2,-8.92 -39.07,-18.73 -44.33,-25.19 -5.24,-6.46 0.45,-17.15 10.24,-18.16 9.78,-1.01 83.34,-1.97 102.74,2.33 19.4,4.31 25.3,6.45 26.13,9.18 0.83,2.73 -2.24,41.44 -3.73,51.36 -1.48,9.93 -39.64,27.47 -64.48,2.01" /><path
         id="path142"
         style="fill:#108f6e;fill-opacity:1;fill-rule:nonzero;stroke:none"
         d="m 2303.6,3693.55 -11.4,-0.33 c 0,0 -0.11,4.45 -1.13,12.68 -0.87,8.18 -2.78,19.88 -5.67,33.8 -5.95,27.81 -17.35,64.28 -33.09,98.94 -15.75,34.61 -34.69,67.83 -51.43,91 -7.71,12.04 -15.41,21.17 -20.38,27.85 -5.08,6.61 -7.98,10.39 -7.98,10.39 l 8.88,7.16 c 0,0 2.96,-3.84 8.13,-10.57 5.06,-6.8 12.89,-16.1 20.76,-28.36 17.03,-23.61 36.36,-57.47 52.43,-92.8 16.07,-35.38 27.72,-72.66 33.84,-101.22 2.97,-14.31 4.93,-26.35 5.85,-34.9 1.05,-8.46 1.19,-13.64 1.19,-13.64" /><path
         id="path144"
         style="fill:#fce300;fill-opacity:1;fill-rule:nonzero;stroke:none"
         d="m 2172.19,4032.05 c 16.79,-18.91 17.53,-44.58 1.99,-56.99 -15.59,-12.46 -40.01,-8.9 -54.75,7.79 -15.74,15.84 -17.46,40.58 -3.92,55.19 13.54,14.61 38.95,11.96 56.68,-5.99" /><path
         id="path146"
         style="fill:#108f6e;fill-opacity:1;fill-rule:nonzero;stroke:none"
         d="m 2165.32,4008.36 c 0,0 -4.24,3.36 -10.37,6.59 -6.37,3.01 -14.58,5.89 -22.02,5.5 -0.48,-7.41 2.09,-15.42 4.78,-21.55 2.44,-6.35 4.98,-10.87 4.98,-10.87 -21.88,-2.3 -35.81,-16.9 -35.81,-16.9 19.63,-13.85 38.95,-15.22 52.79,-13.83 13.87,1.44 23.04,6.67 23.04,6.67 0,0 7.43,7.5 11.75,21.38 4.36,13.88 4.47,33.66 -9.71,58.42 0,0 -14.97,-12.96 -19.43,-35.41" /><path
         id="path148"
         style="fill:#91b31e;fill-opacity:1;fill-rule:nonzero;stroke:none"
         d="m 3800.55,1373.09 c 0,0 1.05,-16.29 -4.68,-33.88 -5.73,-17.59 -15.72,-40.38 -15.14,-48.69 0.59,-8.3 12.05,-12.21 19.89,-6.26 7.83,5.95 62.17,55.53 73.39,71.93 11.22,16.4 14.08,21.99 12.82,24.56 -1.27,2.56 -29.97,28.7 -37.85,34.94 -7.87,6.23 -47.71,-7.05 -48.43,-42.6" /><path
         id="path150"
         style="fill:#91b31e;fill-opacity:1;fill-rule:nonzero;stroke:none"
         d="m 1992.67,3896.85 c 0,0 4.43,-111.76 108.65,-192.07 104.21,-80.3 202.23,-47.49 202.23,-47.49 0,0 6.75,103.15 -97.47,183.45 -104.21,80.31 -213.41,56.11 -213.41,56.11" /><path
         id="path152"
         style="fill:#ffffff;fill-opacity:1;fill-rule:nonzero;stroke:none"
         d="m 2301.83,3655.06 -267.23,205.92 3.44,4.45 267.23,-205.91 -3.44,-4.46" /><path
         id="path154"
         style="fill:#ffffff;fill-opacity:1;fill-rule:nonzero;stroke:none"
         d="m 2069.28,3784.38 -0.18,5.62 63.18,2.01 0.18,-5.62 -63.18,-2.01" /><path
         id="path156"
         style="fill:#ffffff;fill-opacity:1;fill-rule:nonzero;stroke:none"
         d="m 2110.3,3803.47 -14.16,61.6 5.47,1.26 14.17,-61.6 -5.48,-1.26" /><path
         id="path158"
         style="fill:#ffffff;fill-opacity:1;fill-rule:nonzero;stroke:none"
         d="m 2138.04,3731.4 -0.18,5.62 63.18,2.01 0.17,-5.62 -63.17,-2.01" /><path
         id="path160"
         style="fill:#ffffff;fill-opacity:1;fill-rule:nonzero;stroke:none"
         d="m 2179.05,3750.48 -14.15,61.61 5.47,1.26 14.16,-61.6 -5.48,-1.27" /><path
         id="path162"
         style="fill:#ffffff;fill-opacity:1;fill-rule:nonzero;stroke:none"
         d="m 2206.79,3678.42 -0.17,5.62 63.17,2.01 0.18,-5.62 -63.18,-2.01" /><path
         id="path164"
         style="fill:#ffffff;fill-opacity:1;fill-rule:nonzero;stroke:none"
         d="m 2247.81,3697.51 -14.16,61.6 5.48,1.26 14.15,-61.6 -5.47,-1.26" /><path
         id="path166"
         style="fill:#bce13e;fill-opacity:1;fill-rule:nonzero;stroke:none"
         d="m 2474.91,3899.3 c 0,0 -89.01,-3.53 -152.97,-86.54 -63.96,-82.99 -37.82,-161.06 -37.82,-161.06 0,0 82.15,-5.38 146.1,77.63 63.96,83 44.69,169.97 44.69,169.97" /><path
         id="path168"
         style="fill:#91b31e;fill-opacity:1;fill-rule:nonzero;stroke:none"
         d="m 1792.63,3705.33 58.83,94.47 c -19.79,80.59 -51.77,171.82 -103.46,263.5 -41.56,73 -89.9,134 -142.05,185.14 l -79.46,-55.85 c 0,0 10.45,22.64 21.63,45.1 11.1,22.29 22.21,44.59 22.21,44.59 -62.19,55.22 -125.17,97.75 -181.4,129.61 -28.72,15.8 -53.87,29.05 -77.26,39.32 -23.2,10.27 -43.63,17.54 -59.75,21.42 -13.71,-18.77 -29.12,-49.19 -42.54,-90.02 -6.96,-20.6 -12.34,-43 -17.01,-67.77 -4.5,-24.62 -8.59,-52.09 -10.25,-80.39 0,0 24.84,-10.03 49.69,-20.07 24.66,-9.65 49.33,-19.29 49.33,-19.29 0,0 -25.06,-0.96 -50.11,-1.93 -25.17,-0.71 -50.34,-1.42 -50.34,-1.42 -1.07,-119.9 27.71,-262.22 106.58,-395.08 14.21,-24.28 29.32,-47.05 44.99,-68.4 15.6,-21.43 31.5,-41.71 47.97,-60.42 0,0 35.05,2.16 70.11,4.32 34.94,2.41 69.88,4.82 69.88,4.82 l -88.06,-64.26 c 71.55,-69.96 143.11,-117.04 196.54,-146.68 26.7,-14.86 48.92,-25.27 64.52,-32.12 15.51,-6.72 24.64,-10.17 24.64,-10.17 l 82.39,57.08 82.41,57.09 c 0,0 0.49,5.19 0.52,15.45 0.06,10.18 -0.12,25.03 -1.13,43.89 -2.01,37.59 -7.13,90.83 -19.5,153.01 l -69.92,-44.94" /><path
         id="path170"
         style="fill:#ffffff;fill-opacity:1;fill-rule:nonzero;stroke:none"
         d="m 1825.81,3498.54 c -31.08,45.45 -107.62,158.03 -201.28,303.64 -93.92,145.61 -205.26,324.13 -304.35,504.54 72.65,-192.87 171.71,-381.44 259.13,-532.18 87.37,-151.12 163.49,-264.78 195.4,-311.41 l 25.54,17.7 25.56,17.71" /><path
         id="path172"
         style="fill:#bce13e;fill-opacity:1;fill-rule:nonzero;stroke:none"
         d="m 1908.78,3610.07 61.54,36.99 c 12.25,52.18 20.65,114.14 17.67,182.24 -2.54,54.3 -12.87,103.87 -27.99,148.66 l -62.05,-9.25 c 0,0 12.78,9.91 25.57,19.83 12.81,9.74 25.62,19.48 25.62,19.48 -19.93,50.12 -44.31,93.18 -67.95,127.77 -23.59,34.46 -45.87,60.39 -62.67,73.85 -26.33,-14.15 -70.43,-54.37 -107.43,-118.03 0,0 11.52,-12.8 23.04,-25.6 11.53,-12.58 23.05,-25.15 23.05,-25.15 0,0 -14.77,6.59 -29.54,13.17 -14.76,6.74 -29.53,13.48 -29.53,13.48 -34.89,-68.46 -59.5,-158.1 -52.91,-257.13 2.25,-36.06 8.09,-69.76 15.74,-100.9 l 83.08,-35.7 -69.42,-11.07 c 20.56,-61.02 47.79,-109.02 69.68,-141.72 10.93,-16.36 20.63,-28.88 27.55,-37.39 6.91,-8.41 11.12,-13.07 11.12,-13.07 l 64.1,8.42 64.1,8.41 c 0,0 7.19,11.97 17.14,34.27 9.93,22.18 22.65,54.27 33.83,93.67 l -53.34,-5.23" /><path
         id="path174"
         style="fill:#ffffff;fill-opacity:1;fill-rule:nonzero;stroke:none"
         d="m 1866.92,3481.55 c -4.43,35.27 -15.08,122.41 -26.26,233.55 -11.31,111.21 -23.14,246.42 -29.07,379.04 -12.9,-132.26 -11.07,-269.45 -5.01,-381.67 5.95,-112.38 16.03,-200 20.59,-236.13 l 19.88,2.61 19.87,2.6" /><path
         id="path176"
         style="fill:#bce13e;fill-opacity:1;fill-rule:nonzero;stroke:none"
         d="m 3651.08,3053.64 c 0,0 94.67,263.06 82.84,518.08 -11.84,255.02 63.1,446.51 185.38,431.62 122.27,-14.88 228.78,-476.37 -236.66,-977.3 l -31.56,27.6" /><path
         id="path178"
         style="fill:#ffffff;fill-opacity:1;fill-rule:nonzero;stroke:none"
         d="m 3691.96,3063.23 -9.51,5.98 c 1.72,2.73 171.85,276.89 178.43,579.33 l 11.24,-0.24 c -6.65,-305.62 -178.41,-582.31 -180.16,-585.07" /><path
         id="path180"
         style="fill:#91b31e;fill-opacity:1;fill-rule:nonzero;stroke:none"
         d="m 3672.42,3022.35 c 0,0 169.72,88.48 343.81,103.96 174.09,15.5 297.09,83.99 275.71,165.57 -21.37,81.58 -344.25,111.26 -641.16,-250.67 l 21.64,-18.86" /><path
         id="path182"
         style="fill:#ffffff;fill-opacity:1;fill-rule:nonzero;stroke:none"
         d="m 3681.22,3043.71 -7.2,8.62 c 1.71,1.43 173.96,143.78 381.14,176.55 l 1.75,-11.1 c -204.04,-32.27 -373.99,-172.65 -375.69,-174.07" /><path
         id="path184"
         style="fill:#bce13e;fill-opacity:1;fill-rule:nonzero;stroke:none"
         d="m 4440.49,3066.22 c -50.21,5.16 -111.65,10.94 -180.09,8.42 -68.32,-2.84 -142.85,-15.26 -220.72,-50.18 -77.84,-34.68 -120.2,-97.03 -144.19,-151.64 -23.85,-54.49 -28.99,-100.97 -28.99,-100.97 0,0 35.91,-30.3 93.49,-49.99 57.38,-19.72 136.9,-28.72 219.26,13.61 82.15,42.46 141.7,101.44 183.16,161.47 41.74,59.78 64.58,121.77 78.08,169.28" /><path
         id="path186"
         style="fill:#ffffff;fill-opacity:1;fill-rule:nonzero;stroke:none"
         d="m 3867.15,2770.23 -1.29,3.24 c 0,0 31.17,12.45 77.4,32.45 46.25,19.97 107.51,47.53 167.96,76.81 60.5,29.18 120.04,60.3 164.05,84.77 22.11,12.06 40.24,22.63 52.88,30.09 12.69,7.4 19.95,11.63 19.95,11.63 l 1.78,-2.99 c 0,0 -7.25,-4.23 -19.96,-11.65 -12.67,-7.48 -30.82,-18.06 -52.96,-30.14 -44.07,-24.5 -103.67,-55.65 -164.22,-84.85 -60.5,-29.3 -121.81,-56.88 -168.09,-76.87 -46.27,-20.01 -77.5,-32.49 -77.5,-32.49" /><path
         id="path188"
         style="fill:#ffffff;fill-opacity:1;fill-rule:nonzero;stroke:none"
         d="m 4200.38,2925.94 c -0.17,0.78 -1.76,9.98 0.8,26.38 2.52,16.41 9.43,39.6 25.68,68.39 l 2.96,-1.75 c -15.85,-28.22 -22.62,-51.04 -25.08,-67.14 -1.27,-8.02 -1.5,-14.3 -1.42,-18.58 0.07,-4.27 0.5,-6.64 0.5,-6.64 l -3.44,-0.66" /><path
         id="path190"
         style="fill:#ffffff;fill-opacity:1;fill-rule:nonzero;stroke:none"
         d="m 4113.41,2881.31 2.58,2.37 c 0,0 1.97,-2.11 6,-5.22 4.04,-3.1 10.21,-7.29 18.86,-11.67 17.29,-8.73 44.52,-18.43 84.34,-20.93 l -0.3,-3.5 c -40.59,2.54 -68.17,12.34 -85.72,21.18 -17.54,8.9 -25.15,17.11 -25.76,17.77" /><path
         id="path192"
         style="fill:#ffffff;fill-opacity:1;fill-rule:nonzero;stroke:none"
         d="m 3951.75,2807.15 2.68,2.23 c 0,0 2.16,-2.51 6.64,-6.26 4.48,-3.76 11.36,-8.85 21.07,-14.28 19.42,-10.88 50.11,-23.09 95.57,-28 l -0.44,-3.49 c -46.24,5.01 -77.23,17.24 -96.9,28.25 -19.64,10.99 -27.95,20.75 -28.62,21.55" /><path
         id="path194"
         style="fill:#ffffff;fill-opacity:1;fill-rule:nonzero;stroke:none"
         d="m 4021.06,2839.07 c -0.17,1.12 -1.9,15.06 3.15,39.16 5.08,24.01 16.95,58.18 43.18,99.84 l 2.88,-1.91 c -25.84,-41.06 -37.49,-75.06 -42.5,-98.83 -2.5,-11.91 -3.33,-21.29 -3.51,-27.74 -0.19,-6.44 0.26,-10.03 0.26,-10.03 l -3.46,-0.49" /><path
         id="path196"
         style="fill:#ffffff;fill-opacity:1;fill-rule:nonzero;stroke:none"
         d="m 4260.79,2956.9 2.46,2.49 c 0,0 4.69,-4.55 15.09,-9.19 10.41,-4.62 26.66,-9.51 50.15,-10.14 l -0.13,-3.53 c -24.29,0.73 -40.95,5.67 -51.67,10.48 -10.72,4.82 -15.52,9.51 -15.9,9.89" /><path
         id="path198"
         style="fill:#91b31e;fill-opacity:1;fill-rule:nonzero;stroke:none"
         d="m 4294.36,2418.68 c -18.69,81.61 -56.04,205.99 -170.78,298.88 -114.67,92.84 -257.08,28.18 -257.08,28.18 0,0 -25.55,-153.99 95.16,-241.08 120.65,-87.04 250.03,-90.12 332.7,-85.98" /><path
         id="path200"
         style="fill:#ffffff;fill-opacity:1;fill-rule:nonzero;stroke:none"
         d="m 3865.62,2744.58 1.76,2.31 355.93,-272.07 -1.75,-2.32 -355.94,272.08" /><path
         id="path202"
         style="fill:#ffffff;fill-opacity:1;fill-rule:nonzero;stroke:none"
         d="m 4110.33,2559.86 c 0.51,0.38 6.92,4.98 20.14,8.77 13.23,3.79 33.29,6.77 61.11,3.9 l -0.3,-2.9 c -27.2,2.8 -46.94,-0.18 -59.92,-3.89 -6.49,-1.85 -11.28,-3.88 -14.48,-5.47 -3.18,-1.58 -4.82,-2.76 -4.82,-2.76 l -1.73,2.35" /><path
         id="path204"
         style="fill:#ffffff;fill-opacity:1;fill-rule:nonzero;stroke:none"
         d="m 4045.12,2608.69 2.7,-1.04 c 0,0 -0.82,-2.27 -1.63,-6.45 -0.8,-4.18 -1.61,-10.36 -1.67,-18.43 -0.13,-16.16 2.75,-39.91 14.68,-70.49 l -2.7,-1.06 c -12.16,31.16 -15.14,55.18 -15.02,71.58 0.14,16.4 3.36,25.19 3.64,25.89" /><path
         id="path206"
         style="fill:#ffffff;fill-opacity:1;fill-rule:nonzero;stroke:none"
         d="m 3927.34,2698.71 2.72,-1.04 c 0,0 -0.96,-2.6 -1.89,-7.38 -0.93,-4.78 -1.88,-11.85 -1.98,-21.1 -0.18,-18.49 3.05,-45.68 16.68,-80.7 l -2.7,-1.06 c -13.87,35.61 -17.22,63.02 -17.04,81.74 0.18,18.72 3.9,28.74 4.21,29.54" /><path
         id="path208"
         style="fill:#ffffff;fill-opacity:1;fill-rule:nonzero;stroke:none"
         d="m 3978.37,2660.74 c 0.76,0.55 10.31,7.37 30.07,12.96 19.74,5.59 49.69,9.97 91.23,5.67 l -0.31,-2.89 c -40.9,4.23 -70.64,-0.22 -90.19,-5.76 -9.77,-2.78 -16.99,-5.82 -21.8,-8.2 -4.8,-2.36 -7.28,-4.13 -7.28,-4.13 l -1.72,2.35" /><path
         id="path210"
         style="fill:#ffffff;fill-opacity:1;fill-rule:nonzero;stroke:none"
         d="m 4154.79,2524.85 2.71,-1.04 c 0,0 -1.85,-5.14 -1.89,-14.66 -0.04,-9.53 1.68,-23.53 8.73,-41.54 l -2.7,-1.08 c -7.27,18.61 -9.06,32.98 -8.99,42.8 0.06,9.82 1.98,15.1 2.14,15.52" /><path
         id="path212"
         style="fill:#ffd200;fill-opacity:1;fill-rule:nonzero;stroke:none"
         d="m 965.094,1607.82 c 0,0 -4.039,5.68 -27.098,-4.64 -23.055,-10.31 -76.441,-80.69 -92.219,-118.31 0,0 31.547,-28.51 53.395,-40.64 0,0 19.652,16.38 30.754,22.44 0,0 0.793,-68.55 -7.703,-109.2 -8.493,-40.65 -16.789,-65.53 -16.789,-65.53 0,0 71.39,-33.37 164.216,-15.16 0,0 1.22,97.67 4.25,135.29 3.03,37.62 20.63,79.48 10.92,114.67 -9.7,35.18 -51.2,48.34 -84.75,82.71 l -34.976,-1.63" /><path
         id="path214"
         style="fill:#ff9a5c;fill-opacity:1;fill-rule:nonzero;stroke:none"
         d="m 1031.57,1696.79 c 0,0 -1.64,28.59 -17.98,49.01 -16.328,20.42 -52.274,13.07 -66.981,-17.97 -10.589,-22.36 -11.828,-38.65 -11.707,-46.08 -3.007,2.4 -7.679,3.97 -14.132,-0.43 -10.95,-7.46 5.636,-33.78 22.332,-29.23 4.461,-9.3 14.128,-16.99 14.128,-16.99 0,-21.23 4.34,-26.91 4.34,-26.91 15.524,-18.79 33.766,-37.34 46.02,-29.18 12.25,8.18 -2.45,19.61 -6.54,26.15 -4.081,6.53 1.11,9.94 1.11,9.94 36.76,4.9 29.41,81.69 29.41,81.69" /><path
         id="path216"
         style="fill:#753519;fill-opacity:1;fill-rule:nonzero;stroke:none"
         d="m 1005.57,1730.33 c 0,0 -9.547,-35.8 -30.863,-43.68 0,0 6.594,6.67 7.809,10.31 0,0 -27.305,-25.48 -42.473,-23.05 0,0 -9.707,4.24 -12.742,38.22 -3.031,33.97 32.762,53.39 32.762,53.39 h 40.647 l 28.52,-32.77 2.94,-23.04 c 0,0 -18.11,0 -26.6,20.62" /><path
         id="path218"
         style="fill:#ff9a5c;fill-opacity:1;fill-rule:nonzero;stroke:none"
         d="m 1034.98,1324.68 c 0,0 -125.976,21.76 -171.601,47.03 -45.625,25.26 -40.012,47.73 -33.691,63.88 6.32,16.14 25.972,50.53 25.972,50.53 l 44.633,-31.94 -1.121,-9.95 -7.625,-17.39 c 0,0 14.57,-9.23 36.555,-21.44 21.988,-12.21 111.478,-53.25 111.478,-53.25 0,0 21.75,-17.94 -4.6,-27.47" /><path
         id="path220"
         style="fill:#108f6e;fill-opacity:1;fill-rule:nonzero;stroke:none"
         d="m 1252.88,1094.43 -25.5,138.53 c -1.96,10.65 -9.03,19.69 -18.91,24.15 l -151.99,68.61 8.28,18.32 151.99,-68.6 c 15.9,-7.18 27.26,-21.7 30.41,-38.84 l 25.5,-138.51 -19.78,-3.66" /><path
         id="path222"
         style="fill:#753519;fill-opacity:1;fill-rule:nonzero;stroke:none"
         d="m 1324.69,1176.71 c 0,0 30.92,21.07 46.37,23.28 15.46,2.21 19.88,-14.44 30.92,-11.64 11.05,2.8 19.88,11.84 19.88,11.84 l 22.08,-11.74 c 0,0 2.21,6.13 17.67,0 15.46,-6.13 6.63,0.5 15.46,-6.13 8.83,-6.63 22.08,-5.61 22.08,-5.61 0,0 11.05,3.22 22.09,0 11.04,-3.22 27.52,5.39 53,0 25.47,-5.38 48.58,5.43 61.83,0 13.25,-5.43 19.88,-24.7 30.92,-19.48 11.04,5.21 28.71,19.48 28.71,19.48 l 17.66,-30.92 c 0,0 6.63,14.26 15.46,0 8.84,-14.26 28.71,-23.09 28.71,-23.09 0,0 4.42,-2.78 11.04,-13.54 6.63,-10.76 11.95,-40.49 11.95,-40.49 v -13.25 l -332.16,13.25 -139.13,77.12 15.46,30.92" /><path
         id="path224"
         style="fill:#108f6e;fill-opacity:1;fill-rule:nonzero;stroke:none"
         d="m 1300.94,1142.49 -25.5,138.55 c -1.96,10.66 -9.02,19.67 -18.89,24.14 l -152,68.61 8.27,18.33 152,-68.61 c 15.88,-7.17 27.26,-21.68 30.41,-38.82 l 25.5,-138.55 -19.79,-3.65" /><path
         id="path226"
         style="fill:#108f6e;fill-opacity:1;fill-rule:nonzero;stroke:none"
         d="m 1274.65,1176.71 c 0,0 -28.1,-87.27 -35.49,-102.06 -7.4,-14.8 17.74,-68.04 17.74,-68.04 l 264.77,-130.161 258.85,178.971 -505.87,121.29" /><path
         id="path228"
         style="fill:#108f6e;fill-opacity:1;fill-rule:nonzero;stroke:none"
         d="m 1225.21,752.621 c -8.09,0 -14.67,1.77 -20.03,5.289 -13.37,8.738 -18.11,27.34 -15.36,60.281 5.39,64.688 50.33,244.239 52.24,251.859 l 10.89,-2.75 c -0.46,-1.85 -46.62,-186.261 -51.94,-250.03 -2.32,-27.95 0.96,-43.829 10.32,-49.961 14.11,-9.207 47,0.312 100.52,29.211 100.55,54.269 175.61,103.761 176.35,104.261 l 6.2,-9.371 c -0.75,-0.5 -76.2,-50.262 -177.22,-104.789 -42.66,-23.019 -71.93,-34 -91.97,-34" /><path
         id="path230"
         style="fill:#753519;fill-opacity:1;fill-rule:nonzero;stroke:none"
         d="m 1780.74,997.398 c 0,0 -15.86,-17.66 -16.76,-28.699 -0.9,-11.039 16.76,0 16.76,0 0,0 8.84,-12.027 17.67,-4.91 8.83,7.121 0,15.68 0,15.68 l 3.92,17.929 h -21.59" /><path
         id="path232"
         style="fill:#108f6e;fill-opacity:1;fill-rule:nonzero;stroke:none"
         d="m 2541.36,745.691 -15.01,-11.609 c 0,0 -4.83,6.5 -13.27,17.859 -8.28,11.411 -20.03,27.719 -33.48,47.719 -27.1,39.852 -61.52,94.16 -92.85,150.301 -31.5,56.039 -59.52,113.999 -78.84,158.249 -9.13,22.36 -16.74,41 -22.06,54.04 -4.76,13.28 -7.48,20.86 -7.48,20.86 l 17.85,6.46 c 0,0 2.67,-7.46 7.36,-20.54 5.25,-12.86 12.75,-31.24 21.75,-53.3 19.08,-43.68 46.78,-100.99 77.99,-156.488 31.01,-55.601 65.14,-109.453 91.99,-148.922 13.32,-19.808 24.94,-35.941 33.1,-47.191 8.24,-11.09 12.95,-17.438 12.95,-17.438" /><path
         id="path234"
         style="fill:#fce300;fill-opacity:1;fill-rule:nonzero;stroke:none"
         d="m 2320.6,1278.01 c 5.52,-17.8 3.28,-36.03 -2.63,-51.26 -6.11,-15.22 -17.6,-27.71 -33.21,-33.27 -15.61,-5.57 -32.47,-2.94 -47.26,6.28 -14.93,9.08 -26.24,25.55 -32.39,45.55 -1.49,5.02 -2.54,10.03 -3.17,14.96 -0.42,5.03 -0.34,10 0.08,14.81 0.85,9.61 3.26,18.57 7.01,26.38 7.5,15.63 20.36,26.5 36.61,29.72 16.26,3.22 32.78,-1.52 46.2,-11.12 6.7,-4.83 12.64,-10.89 17.41,-17.97 2.4,-3.54 4.46,-7.34 6.26,-11.37 2.04,-4 3.75,-8.25 5.09,-12.71" /><path
         id="path236"
         style="fill:#108f6e;fill-opacity:1;fill-rule:nonzero;stroke:none"
         d="m 2292.94,1249.33 c 0,0 -4.02,7.56 -10.88,16.52 -3.42,4.48 -7.62,9.31 -12.24,13.75 -4.38,4.5 -9.34,8.59 -14.77,11.48 -3.56,-5.12 -6.12,-11.24 -7.97,-17.54 -1.6,-6.25 -2.33,-12.63 -2.72,-18.41 -0.75,-11.56 0.16,-20.55 0.16,-20.55 -17.63,6.49 -34.39,7.37 -46.71,6.47 -12.32,-0.86 -20.2,-3.52 -20.2,-3.52 21.87,-42.26 51.78,-58.2 74.83,-64.12 23.08,-5.91 40.11,-1.87 40.11,-1.87 0,0 15.44,8.51 29.79,27.2 14.35,18.7 27.19,47.08 25.76,87.05 0,0 -8.1,-1.89 -19.07,-7.31 -10.96,-5.44 -24.79,-14.43 -36.09,-29.15" /><path
         id="path238"
         style="fill:#753519;fill-opacity:1;fill-rule:nonzero;stroke:none"
         d="m 1829.33,961.531 c 0,0 -13.26,-25.949 -11.05,-32.582 2.21,-6.629 11.05,0 11.05,0 0,0 13.24,-5.89 19.87,-2.937 6.63,2.937 17.67,17.347 17.67,17.347 h -24.42 l -13.12,18.172" /><path
         id="path240"
         style="fill:#753519;fill-opacity:1;fill-rule:nonzero;stroke:none"
         d="m 1897.75,786.672 c 0,0 -55.46,5.937 -55.33,0 0.12,-5.93 0,-22.84 0,-22.84 0,0 -11.41,13.988 -24.42,0 -13,-14.012 -15.7,-36.102 -15.7,-36.102 0,0 -3.55,-13.199 -19.19,-15.429 -15.65,-2.231 -19.16,-15.469 -19.16,-15.469 0,0 33.93,-11.051 54.05,-13.262 20.13,-2.199 37.79,0 37.79,0 0,0 22.09,2.461 41.96,-0.98 19.88,-3.442 41.96,-7.848 61.83,-10.059 19.88,-2.211 55.21,15.461 55.21,15.461 0,0 61.84,2.207 86.13,-2.211 24.29,-4.41 50.79,6.617 50.79,6.617 l 8.84,19.903 c 0,0 -17.67,3.937 -28.71,18.519 -11.04,14.59 -24.3,52.95 -33.13,55.852 -8.83,2.898 -33.12,22.91 -33.12,22.91 0,0 -22.09,34.09 -24.3,55.629 -2.2,21.531 -30.91,35.348 -30.91,35.348 0,0 -13.25,-3.559 -22.08,-21.938 -8.84,-18.383 -26.05,-13.41 -26.05,-13.41 0,0 -11.5,-1.91 -18.12,-21.109 -6.63,-19.204 -8.84,-34.52 -8.84,-34.52 0,0 -26.5,8.969 -39.75,0 -13.25,-8.961 2.21,-22.91 2.21,-22.91" /><path
         id="path242"
         style="fill:#108f6e;fill-opacity:1;fill-rule:nonzero;stroke:none"
         d="m 1560.21,801.84 -49.61,77.742 18.94,12.09 49.62,-77.742 -18.95,-12.09" /><path
         id="path244"
         style="fill:#91b31e;fill-opacity:1;fill-rule:nonzero;stroke:none"
         d="m 3593.14,727.379 -22.1,8.512 148.21,384.969 22.1,-8.51 -148.21,-384.971" /><path
         id="path246"
         style="fill:#91b31e;fill-opacity:1;fill-rule:nonzero;stroke:none"
         d="m 3867.44,727.379 -148.19,384.971 22.1,8.51 148.19,-384.969 -22.1,-8.512" /><path
         id="path248"
         style="fill:#91b31e;fill-opacity:1;fill-rule:nonzero;stroke:none"
         d="m 3796.56,944.281 h -128.05 v 23.66 h 128.05 v -23.66" /><path
         id="path250"
         style="fill:#91b31e;fill-opacity:1;fill-rule:nonzero;stroke:none"
         d="m 3824.65,859.66 h -185.59 v 23.66 h 185.59 v -23.66" /><path
         id="path252"
         style="fill:#ff9a5c;fill-opacity:1;fill-rule:nonzero;stroke:none"
         d="m 3583.05,2335.99 c 0,0 -31.03,-30.27 -41.9,-63.63 -10.86,-33.36 5.43,-62.07 35.7,-70.59 0,0 6.98,-34.91 6.2,-47.34 0,0 23.28,-6.2 35.69,-4.64 12.41,1.55 23.27,6.2 23.27,6.2 v 49.65 c 0,0 23.28,20.95 30.27,40.35 6.98,19.39 13.18,66.72 -9.32,90 -22.5,23.27 -67.52,13.72 -79.91,0" /><path
         id="path254"
         style="fill:#91b31e;fill-opacity:1;fill-rule:nonzero;stroke:none"
         d="m 3246.2,2486.71 c 0,0 -0.83,-3.49 -18.71,-9.01 -17.89,-5.53 -30.66,-0.42 -35.78,-14.91 -5.11,-14.48 5.12,-42.58 -5.96,-48.54 -11.07,-5.97 -14.48,-10.23 -14.48,-10.23 0,0 28.09,-35.77 37.46,-51.1 0,0 12.79,10.21 17.05,28.11 4.26,17.89 33.35,9.29 40.03,15.33 6.69,6.03 13.77,15.33 13.77,15.33 0,0 -9.55,62.3 -33.38,75.02" /><path
         id="path256"
         style="fill:#753519;fill-opacity:1;fill-rule:nonzero;stroke:none"
         d="m 3625.42,2303.92 c 0,0 -31.21,21.77 -38.47,42.1 -7.25,20.32 1.46,39.07 19.24,36.95 17.77,-2.12 27.22,-5.02 27.22,-5.02 0,0 16.56,21.04 45.29,-5.81 28.73,-26.86 25.11,-64.59 25.11,-64.59 0,0 36.29,-10.17 21.78,-44.28 -14.53,-34.11 -46.89,-45.19 -46.89,-45.19 0,0 -4.65,-22.11 -16.99,-23.29 -12.33,-1.2 -19.7,-4.12 -19.7,-4.12 l 2.28,41.39 c 0,0 11.62,0 18.14,13.79 6.53,13.79 -13.79,11.61 -13.79,11.61 0,0 -11.61,21.06 -6.53,29.03 0,0 -18.15,7.26 -16.69,17.43" /><path
         id="path258"
         style="fill:#ff9a5c;fill-opacity:1;fill-rule:nonzero;stroke:none"
         d="m 3471.81,2223.92 c 0,0 -55.77,43.83 -103.23,102.04 -47.45,58.2 -76.5,99.84 -76.5,99.84 0,0 0,24.21 -9.69,44.55 -9.68,20.33 -10.65,16.46 -16.46,24.21 -5.8,7.74 -5.77,-6.29 1.56,-19.96 7.33,-13.67 7.33,-13.67 7.33,-13.67 0,0 -19,30.34 -26,29.34 -7,-1 1.34,-11 5,-16.33 3.67,-5.35 5,-14.68 5,-14.68 0,0 -13.67,21 -18.34,17.34 -4.67,-3.67 5.01,-16.34 12.67,-26.35 7.67,-10 9.01,-25.67 13.68,-34 0,0 65.96,-171.24 160.03,-244.8 94.06,-73.57 44.95,52.47 44.95,52.47" /><path
         id="path260"
         style="fill:#ff9a5c;fill-opacity:1;fill-rule:nonzero;stroke:none"
         d="m 3290.35,2423.49 c 0,0 2.05,11.1 2.85,12.31 0.8,1.22 3.38,10.45 5.32,16.25 1.93,5.8 -0.86,11.39 -4.09,8.59 -3.22,-2.79 -10.52,-13.1 -10.31,-19.33 0.22,-6.22 6.23,-17.82 6.23,-17.82" /><path
         id="path262"
         style="fill:#ff9a5c;fill-opacity:1;fill-rule:nonzero;stroke:none"
         d="m 3729.01,2050.98 c 0,0 42.1,-51.08 58.21,-59.12 16.1,-8.06 58.58,27.32 80.51,67.98 21.93,40.66 33.26,71.51 33.26,71.51 0,0 28.46,20.63 36.52,40.31 0,0 2.92,8.8 0,10.77 -2.93,1.97 -11.31,-12.32 -15.74,-17.74 0,0 12.81,22.18 10.85,27.11 -1.98,4.93 -20.22,-20.71 -20.22,-20.71 0,0 14.3,26.14 9.37,26.62 -4.93,0.5 -18.74,-23.17 -18.74,-23.17 0,0 -0.49,16.27 -5.42,15.28 -4.93,-0.97 -3.46,-19.22 -3.46,-19.22 0,0 -4.92,-22.68 -7.88,-30.07 -2.96,-7.41 -65.09,-78.4 -72.98,-80.37 0,0 -25.14,35.49 -48.31,42.4 -23.17,6.9 -35.97,-51.58 -35.97,-51.58" /><path
         id="path264"
         style="fill:#0e1a34;fill-opacity:1;fill-rule:nonzero;stroke:none"
         d="m 3513.59,1892.69 c 0,0 58.32,-618.06 68.51,-670.11 0,0 55.27,-6.67 74.1,0 0,0 -4.15,376.32 0,415.02 4.14,38.7 37.51,236.2 25.5,262.89 -12.01,26.69 -168.11,-7.8 -168.11,-7.8" /><path
         id="path266"
         style="fill:#0e1a34;fill-opacity:1;fill-rule:nonzero;stroke:none"
         d="m 3696.38,1903.15 c 0,0 20.75,-247.22 31.06,-285.07 10.3,-37.87 122.05,-197.81 122.05,-197.81 l -49.02,-49.57 c 0,0 -101.43,102.76 -130.78,140.13 -29.36,37.36 -80.07,193.5 -80.07,193.5 0,0 29.35,237.53 106.76,198.82" /><path
         id="path268"
         style="fill:#108f6e;fill-opacity:1;fill-rule:nonzero;stroke:none"
         d="m 2830.81,3298.81 c -56.89,17.66 -98.1,23.2 -131.45,42.01 -33.35,18.81 -66.71,32.72 -92.22,31.65 -25.5,-1.07 -78.48,12.84 -109.87,0 -31.39,-12.84 -64.62,-77.49 -112.75,-89.31 -48.13,-11.82 -168.98,13.69 -202.73,35.27 -33.75,21.58 -43.34,64.74 -33.64,86.33 9.7,21.58 13.62,60.08 11.66,74.19 -1.96,14.1 49.05,41.77 66.71,60.3 17.65,18.53 34.35,78.92 -7.43,109.12 -200.17,-44.99 -384.47,-131.92 -543.14,-251.16 0.01,-0.13 1.27,-14.12 12.99,-33.66 11.77,-19.61 -7.1,-31.39 -6.5,-37.27 0.61,-5.89 11.11,-5.22 1.94,-16.34 -9.17,-11.13 0.16,-9.17 -8.43,-17.02 -8.6,-7.85 -16.44,-15.69 -22.33,-19.61 -5.89,-3.93 -3.92,-15.7 -15.7,-29.44 -11.77,-13.73 -33.35,-25.5 -33.35,-47.08 0,-21.58 -33.35,-51.01 -37.28,-62.79 -3.92,-11.77 -37.28,-56.9 -39.23,-86.32 -1.97,-29.43 -1.97,-60.82 0,-78.49 1.95,-17.65 2.94,-37.27 -1.48,-58.85 -4.41,-21.59 -8.34,-41.2 -10.3,-80.44 -1.96,-39.25 13.73,-56.9 51.01,-68.67 37.28,-11.78 107.81,-45.13 125.52,-70.63 17.71,-25.51 27.52,-56.9 41.25,-60.82 13.74,-3.93 25.51,-45.13 70.63,-76.52 45.13,-31.39 129.49,-35.37 166.77,-75.56 37.28,-40.2 105.95,-138.15 123.61,-192.18 17.65,-54.03 47.08,-73.93 78.47,-100.28 31.4,-26.34 70.63,-55.77 100.07,-57.73 29.43,-1.96 41.43,10.37 40.34,20.88 -1.1,10.51 -38.38,41.9 -44.27,49.74 -5.88,7.86 -17.65,60.83 -35.31,98.11 -17.66,37.28 -19.62,38.8 -13.74,56.68 5.89,17.87 17.66,57.05 35.32,66.89 17.66,9.84 31.39,2.66 43.16,19.98 11.77,17.33 15.93,27.08 14.84,37.91 -1.1,10.82 -18.76,17.52 -36.42,19.07 -17.66,1.55 -23.54,17.25 -47.09,21.17 -23.54,3.93 -56.9,13.73 -64.74,27.47 -7.85,13.73 -25.51,17.66 -37.28,15.69 -11.77,-1.96 -47.09,-7.84 -70.63,15.7 -23.55,23.55 -25.5,68.67 -29.43,92.21 -3.93,23.55 -7.85,31.4 -1.96,49.05 5.89,17.66 5.89,31.51 33.35,44.21 27.47,12.69 72.59,22.61 100.06,0 27.47,-22.63 82.41,-4.97 94.18,8.77 11.77,13.73 45.12,54.93 72.59,56.89 27.47,1.97 72.59,0 90.25,15.7 17.66,15.7 84.37,48.79 96.14,75.41 11.77,26.61 56.89,103.82 56.89,128.98 0,25.16 82.41,74.21 105.95,66.36 23.55,-7.85 54.94,29.43 66.71,29.43 11.78,0 47.09,-5.88 66.71,17.66 19.62,23.54 35.31,39.36 51,61.86 15.71,22.5 27.48,57.82 -29.42,75.48" /><path
         id="path270"
         style="fill:#108f6e;fill-opacity:1;fill-rule:nonzero;stroke:none"
         d="m 2708.47,1449.28 c 0,0 -66.16,41.41 -122.37,65.08 -56.2,23.67 -97.62,107.42 -112.41,124.7 -14.79,17.3 -26.62,168.17 0,194.79 26.62,26.63 53.43,70.99 75.53,106.5 22.1,35.5 30.97,59.16 22.1,73.96 -8.88,14.78 -8.88,98.78 0,112.98 8.87,14.22 53.24,40.84 73.95,37.89 20.71,-2.96 85.79,15.24 112.42,0.22 26.62,-15.02 127.2,-68.19 171.58,-71.19 44.37,-2.99 88.75,-41.45 124.25,-20.74 35.49,20.71 87.59,-2.96 117.75,-47.33 30.16,-44.37 65.65,-89.52 115.95,-118.72 50.29,-29.2 45.91,-55.82 74.72,-61.74 28.81,-5.91 93.18,-23.47 128.04,-47.33 34.87,-23.86 23.43,-53.25 -5.35,-88.75 -28.79,-35.5 -64.6,-91.7 -88.12,-127.21 -23.5,-35.5 -14.94,-88.74 0,-103.53 14.95,-14.8 3.12,-76.92 -17.58,-94.67 -20.72,-17.74 -65.09,-47.33 -82.84,-79.87 -17.75,-32.54 -16.04,-56.67 -56.83,-71.23 -40.79,-14.56 -132.5,-55.98 -188.7,-69.29 -56.21,-13.31 -103.55,-16.46 -142.01,-48.91 -38.45,-32.44 -43.87,-120.55 -80.06,-135.66 -36.2,-15.121 -144.76,-83.07 -186.18,-78.671 -41.41,4.39 -41.35,12.671 -17.72,42.562 23.64,29.871 83.46,82.489 117.16,130.449 33.7,47.97 -10.69,94.3 18.89,113.72 29.58,19.41 34.76,77.09 44.01,94.11 9.25,17 6.76,111.48 -96.18,167.88" /><path
         id="path272"
         style="fill:#108f6e;fill-opacity:1;fill-rule:nonzero;stroke:none"
         d="m 3558.39,2771.85 c 5.92,-12.06 37.47,-25.86 61.14,-37.7 23.66,-11.83 45.9,6.37 55.49,37.7 9.59,31.33 51.01,37.25 72.7,25.41 21.69,-11.83 45.36,-17.75 61.14,-13.8 15.57,3.89 45.78,15.5 46.56,15.8 -90.31,218.55 -233.17,409.86 -412.95,558.05 -0.02,-0.03 -16.24,-23.82 -41.85,-47.37 -25.64,-23.58 -31.99,-41.33 -38.68,-55.13 -6.69,-13.81 -26.4,-72.97 -18.51,-98.61 7.88,-25.64 4.6,-43.39 33.86,-65.08 29.24,-21.7 55.27,-29.06 42.25,-68.77 -13.01,-39.7 -3.14,-82.12 -16.95,-103.31 -13.81,-21.2 -15.39,-62.61 16.95,-90.22 32.35,-27.61 73.77,-21.7 83.63,-23.67 9.86,-1.97 49.3,-21.24 55.22,-33.3" /><path
         id="path274"
         style="fill:#108f6e;fill-opacity:1;fill-rule:nonzero;stroke:none"
         d="m 2586.1,2439.79 c 0,0 0,-27.1 -19.71,-44.86 -19.73,-17.74 -39.45,-49.3 -19.73,-53.24 19.73,-3.95 61.14,-9.77 71,-15.73 9.86,-5.97 61.14,-33.58 74.95,-23.71 13.8,9.85 23.66,33.52 37.47,35.49 13.8,1.98 17.74,36.94 29.58,48.05 11.83,11.11 53.25,50.56 57.19,82.12 3.94,31.55 7.89,78.88 0,90.72 -7.89,11.83 -63.11,19.72 -69.03,35.5 -5.92,15.77 -41.08,27.61 -67.87,11.83 -26.8,-15.78 -38.62,-51.28 -42.57,-76.92 -3.94,-25.63 -53.25,-44.38 -51.28,-89.25" /><path
         id="path276"
         style="fill:#108f6e;fill-opacity:1;fill-rule:nonzero;stroke:none"
         d="m 3434.08,3277.06 -16.25,12.2 c 0,0 4.85,6.4 12.8,18.89 8.04,12.34 18.95,30.47 31.1,52.8 24.31,44.64 52.67,106.55 75.51,170.59 22.83,64.03 41.41,129.59 52.03,179.51 6.24,24.76 9.34,45.84 12.35,60.41 2.77,14.63 4.36,22.99 4.36,22.99 l 20.03,-3.44 c 0,0 -1.61,-8.46 -4.42,-23.27 -3.04,-14.75 -6.19,-36.08 -12.5,-61.16 -10.76,-50.54 -29.58,-116.99 -52.73,-181.93 -23.17,-64.97 -51.97,-127.87 -76.79,-173.41 -12.39,-22.79 -23.55,-41.36 -31.87,-54.13 -8.14,-12.78 -13.62,-20.05 -13.62,-20.05" /><path
         id="path278"
         style="fill:#fce300;fill-opacity:1;fill-rule:nonzero;stroke:none"
         d="m 3692.07,3868.89 c -6.04,-43.79 -39.76,-74.29 -74.64,-68.18 -35.01,6.12 -58.48,43.53 -52.9,83.63 4.01,40.36 36.02,71.06 71.41,68.58 35.39,-2.47 60.56,-40.09 56.13,-84.03" /><path
         id="path280"
         style="fill:#108f6e;fill-opacity:1;fill-rule:nonzero;stroke:none"
         d="m 3652.13,3851.22 c 0,0 -0.38,9.54 -3.14,21.55 -3.1,12.06 -8.46,26.52 -17.45,36.28 -10.73,-7.76 -18.81,-20.46 -24.2,-31.2 -5.74,-10.69 -8.92,-19.44 -8.92,-19.44 -28.47,27.25 -64.26,29.61 -64.26,29.61 3.97,-43.9 24.17,-71.8 42.55,-88.85 18.32,-17.01 36.15,-22.96 36.15,-22.96 0,0 18.78,-0.95 42.3,9.49 23.42,10.43 50.45,32.89 67.28,79.51 0,0 -34.87,5.66 -70.31,-13.99" /><path
         id="path282"
         style="fill:#108f6e;fill-opacity:1;fill-rule:nonzero;stroke:none"
         d="m 3165.96,4274.39 c 0,0 -17.04,-3.66 -50.33,-22.89 -33.28,-19.23 -107.97,-93.18 -107.97,-93.18 0,0 27.36,-49.55 62.13,-76.18 0,0 40.67,18.49 51.02,25.88 0,0 20.71,-99.84 -20.7,-161.22 0,0 23.66,-28.11 62.86,-34.02 39.2,-5.92 80.61,-5.18 114.63,-29.59 34.02,-24.4 89.49,-22.18 113.15,0 0,0 19.97,76.92 0,148.66 -19.96,71.74 -48.81,111.67 -48.81,111.67 l 12.57,-9.61 c 0,0 42.9,46.59 45.12,82.83 0,0 -49.55,51.03 -85.05,70.26 -35.5,19.23 -74.3,12.57 -103.71,0 -29.41,-12.57 -44.91,-12.61 -44.91,-12.61" /><path
         id="path284"
         style="fill:#ff9a5c;fill-opacity:1;fill-rule:nonzero;stroke:none"
         d="m 3088.85,4365.82 c 0.35,-3.28 8.79,-43.94 28.56,-63.71 19.78,-19.78 35.15,-7.7 40.65,-9.89 5.48,-2.2 8.79,-17.58 8.79,-28.56 0,-10.99 17.56,-21.97 34.04,-9.89 16.48,12.09 7.69,68.11 7.69,68.11 0,0 9.08,18.67 2.35,43.94 0,0 8.41,20.86 2.48,32.95 -5.93,12.08 -14.72,8.78 -19.1,0 0,0 -20.88,38.44 -51.63,31.85 -30.77,-6.58 -58.23,-23.07 -53.83,-64.8" /><path
         id="path286"
         style="fill:#753519;fill-opacity:1;fill-rule:nonzero;stroke:none"
         d="m 3231.65,4388.88 c -9.88,13.18 -3.3,47.23 -16.12,67.01 -12.83,19.77 -39.9,13.18 -39.9,13.18 0,0 -6.6,29.66 -31.86,25.26 -25.26,-4.39 -48.33,-38.44 -48.33,-38.44 0,0 -13.18,4.39 -37.34,0 -24.17,-4.39 -51.64,-20.87 -41.74,-45.04 9.88,-24.17 47.22,-22.8 47.22,-22.8 0,0 -9.88,-47.5 24.81,-34.32 1.01,0.39 1.89,0.93 2.85,1.39 -1.5,5.7 -2.29,9.76 -2.39,10.7 -3.16,30.04 10.21,46.95 29.39,56.55 7.48,3.74 15.81,6.4 24.44,8.25 30.75,6.59 51.63,-31.85 51.63,-31.85 4.39,8.78 13.17,12.08 19.1,0 5.93,-12.09 -2.48,-32.95 -2.48,-32.95 3.69,-13.85 2.61,-25.57 0.9,-33.47 1.24,-0.22 2.54,-0.59 3.7,-0.59 32.2,0 26,43.94 16.12,57.12" /><path
         id="path288"
         style="fill:#753519;fill-opacity:1;fill-rule:nonzero;stroke:none"
         d="m 3091.24,4355.12 c 0,0 37.84,15.99 40.53,72.63 0,0 11.64,-35.31 62.54,-28.98 0,0 -4.02,47.15 -45.94,58.98 -41.92,11.82 -72.62,-58.1 -72.62,-58.1 0,0 -5.34,-27.95 15.49,-44.53" /><path
         id="path290"
         style="fill:#ffffff;fill-opacity:1;fill-rule:nonzero;stroke:none"
         d="m 3161.06,3498.7 c -7.93,66.56 -21.07,132.98 -21.21,133.65 l 5.51,1.1 c 0.14,-0.67 13.32,-67.31 21.28,-134.08 l -5.58,-0.67" /><path
         id="path292"
         style="fill:#ff9a5c;fill-opacity:1;fill-rule:nonzero;stroke:none"
         d="m 1108.69,1393.54 c 0,0 11.73,-0.22 18.25,-1.36 6.52,-1.14 10.72,-10.39 12.57,-14.08 1.85,-3.71 -6.29,-3.33 -10.35,1.84 -4.07,5.18 -4.93,6.47 -4.93,6.47 0,0 -6.17,1.3 -9.68,0 -3.51,-1.29 -7.79,2.86 -8.51,5.77 -0.71,2.92 2.65,1.36 2.65,1.36" /><path
         id="path294"
         style="fill:#ff9a5c;fill-opacity:1;fill-rule:nonzero;stroke:none"
         d="m 1031.6,1325.75 c 10.33,-11.13 23.71,-17.02 23.71,-17.02 0.98,-8.51 5.89,-12.11 8.65,-11.79 2.75,0.33 2.81,13.11 2.81,13.11 2.44,-5.9 12.11,-11.79 13.42,-8.19 1.31,3.6 0,9.5 0,9.5 0,0 3.93,-5.25 6.88,-5.25 2.94,0 6.54,2.62 5.23,9.17 -1.31,6.55 -5.23,16.37 -9.17,21.6 -3.92,5.25 -6.22,10.48 -14.73,12.45 -8.51,1.96 -11.45,0.65 -21.28,1.64 -9.82,0.97 -24.55,0 -24.55,0 l 9.03,-25.22" /><path
         id="path296"
         style="fill:#ff9a5c;fill-opacity:1;fill-rule:nonzero;stroke:none"
         d="m 1034.99,1346.11 v 5.29 c 0,0 23.91,7.24 28.66,5.57 4.75,-1.67 9.23,-8.35 11.85,-10.86 2.63,-2.51 -40.51,0 -40.51,0" /><path
         id="path298"
         style="fill:#0e1a34;fill-opacity:1;fill-rule:nonzero;stroke:none"
         d="m 1715.06,721.422 c 0,-56.871 -46.1,-102.953 -102.96,-102.953 -56.85,0 -102.94,46.082 -102.94,102.953 0,56.848 46.09,102.949 102.94,102.949 56.86,0 102.96,-46.101 102.96,-102.949" /><path
         id="path300"
         style="fill:#ffffff;fill-opacity:1;fill-rule:nonzero;stroke:none"
         d="m 1612.1,761.781 c -22.26,0 -40.36,-18.109 -40.36,-40.359 0,-22.274 18.1,-40.383 40.36,-40.383 22.27,0 40.38,18.109 40.38,40.383 0,22.25 -18.11,40.359 -40.38,40.359 z m 0,-86.359 c -25.35,0 -45.98,20.629 -45.98,46 0,25.348 20.63,45.976 45.98,45.976 25.37,0 46,-20.628 46,-45.976 0,-25.371 -20.63,-46 -46,-46" /><path
         id="path302"
         style="fill:#108f6e;fill-opacity:1;fill-rule:nonzero;stroke:none"
         d="m 2847.12,2397.21 c 0,0 -23.28,-21.08 -39.57,-44.29 -16.3,-23.21 27.93,-11.57 39.57,-13.91 11.64,-2.32 13.96,-19.13 37.25,-13.05 23.27,6.07 2.32,-0.91 23.27,6.07 20.94,6.98 27.94,4.66 48.88,6.98 20.95,2.34 16.83,17.55 28.2,30.89 11.37,13.34 11.9,24.98 0,36.62 -11.91,11.64 -18.89,-23.28 -42.16,0 -23.28,23.27 -22.5,43.27 -43.84,33.27 -21.34,-10 -15.8,-13.51 -25.56,-22.23 -9.75,-8.71 -26.04,-20.35 -26.04,-20.35" /><path
         id="path304"
         style="fill:#91b31e;fill-opacity:1;fill-rule:nonzero;stroke:none"
         d="m 3604.56,2176.96 c 0,0 -67.86,-4.66 -125.27,53.53 0,0 -38.02,-31.03 -59.75,-71.37 0,0 41.9,-48.89 89.23,-71.38 0,0 -21.44,-180.32 -10.09,-242.85 0,0 75.26,-13.96 121.81,-17.06 46.54,-3.1 103.95,11.63 103.95,11.63 l -13.18,222.68 13.18,-15.52 c 0,0 48.11,44.22 48.88,68.27 0,0 -68.59,64.4 -98.3,74.48 -29.71,10.09 -41.55,-14.73 -70.46,-12.41" /><path
         id="path306"
         style="fill:#ffffff;fill-opacity:1;fill-rule:nonzero;stroke:none"
         d="m 3657.19,1536.47 -5.62,0.08 c 0.09,5.08 2.07,124.21 5.61,140.67 3.45,16.14 24.14,128.56 24.35,129.68 l 5.53,-1 c -0.2,-1.14 -20.93,-113.64 -24.39,-129.87 -3.42,-15.9 -5.46,-138.33 -5.48,-139.56" /><path
         id="path308"
         style="fill:#ffd200;fill-opacity:1;fill-rule:nonzero;stroke:none"
         d="m 2767.37,654.031 h -114.82 c 0,0 -62.9,420.869 0,509.769 62.89,88.91 194.71,58.62 114.82,-509.769" /><path
         id="path310"
         style="fill:#ffd200;fill-opacity:1;fill-rule:nonzero;stroke:none"
         d="m 2615.27,654.031 h -102.49 c 0,0 -134.45,41.938 -198.83,144.438 -64.39,102.492 31.11,145.941 101,102.09 69.88,-43.86 200.32,-246.528 200.32,-246.528" /><path
         id="path312"
         style="fill:#91b31e;fill-opacity:1;fill-rule:nonzero;stroke:none"
         d="m 2652.55,654.031 h -62.9 c 0,0 -149.08,147.219 -167.72,325.199 -18.63,177.97 123.46,120.17 186.36,-36.109 62.89,-156.301 69.88,-289.09 69.88,-289.09 h -25.62" /><path
         id="path314"
         style="fill:#ffd200;fill-opacity:1;fill-rule:nonzero;stroke:none"
         d="m 2804.65,654.031 h 102.49 c 0,0 134.45,41.938 198.84,144.438 64.39,102.492 -31.12,145.941 -101,102.09 -69.88,-43.86 -200.33,-246.528 -200.33,-246.528" /><path
         id="path316"
         style="fill:#91b31e;fill-opacity:1;fill-rule:nonzero;stroke:none"
         d="m 2767.37,654.031 h 62.9 c 0,0 149.09,147.219 167.72,325.199 18.63,177.97 -123.46,120.17 -186.36,-36.109 -62.89,-156.301 -69.88,-289.09 -69.88,-289.09 h 25.62" /><path
         id="path318"
         style="fill:#ffffff;fill-opacity:1;fill-rule:nonzero;stroke:none"
         d="m 3120.5,2521.62 6.09,12.42 7.91,-11.35 12.42,-6.09 -11.35,-7.91 -6.09,-12.43 -7.91,11.36 -12.43,6.09 11.36,7.91" /><path
         id="path320"
         style="fill:#ffffff;fill-opacity:1;fill-rule:nonzero;stroke:none"
         d="m 3338.61,2470.17 3.71,7.55 4.81,-6.91 7.57,-3.7 -6.92,-4.82 -3.7,-7.55 -4.81,6.9 -7.56,3.71 6.9,4.82" /><path
         id="path322"
         style="fill:#ffffff;fill-opacity:1;fill-rule:nonzero;stroke:none"
         d="m 3373.8,2571.95 3.7,7.56 4.81,-6.91 7.56,-3.7 -6.9,-4.81 -3.71,-7.57 -4.81,6.91 -7.57,3.71 6.92,4.81" /><path
         id="path324"
         style="fill:#ffffff;fill-opacity:1;fill-rule:nonzero;stroke:none"
         d="m 3067.89,2609.95 3.7,7.56 4.82,-6.9 7.55,-3.71 -6.9,-4.81 -3.71,-7.56 -4.81,6.91 -7.56,3.7 6.91,4.81" /><path
         id="path326"
         style="fill:#ffffff;fill-opacity:1;fill-rule:nonzero;stroke:none"
         d="m 3113.54,2330.99 3.71,7.55 4.81,-6.91 7.56,-3.7 -6.91,-4.81 -3.71,-7.56 -4.8,6.9 -7.57,3.71 6.91,4.82" /><path
         id="path328"
         style="fill:#ffffff;fill-opacity:1;fill-rule:nonzero;stroke:none"
         d="m 2339.6,4038.21 -2.28,1.63 c 2.23,3.12 3.49,4.78 3.49,4.78 l 2.24,-1.7 c -0.01,-0.01 -1.26,-1.65 -3.45,-4.71" /><path
         id="path330"
         style="fill:#ffffff;fill-opacity:1;fill-rule:nonzero;stroke:none"
         d="m 2326.26,4018.3 -2.37,1.5 c 2.32,3.65 4.48,6.95 6.42,9.86 l 2.34,-1.56 c -1.93,-2.9 -4.08,-6.17 -6.39,-9.8 z m -12.1,-20.02 -2.44,1.4 c 2.04,3.55 4.04,6.93 5.98,10.12 l 2.4,-1.44 c -1.92,-3.18 -3.91,-6.54 -5.94,-10.08 z m -11.24,-20.52 -2.49,1.3 c 1.86,3.57 3.71,7.02 5.54,10.37 l 2.46,-1.35 c -1.82,-3.32 -3.66,-6.77 -5.51,-10.32 z m -10.32,-20.99 -2.55,1.18 c 1.67,3.62 3.36,7.16 5.07,10.61 l 2.52,-1.24 c -1.69,-3.43 -3.38,-6.95 -5.04,-10.55 z m -9.3,-21.46 -2.6,1.05 c 1.48,3.68 3,7.3 4.54,10.85 l 2.58,-1.12 c -1.53,-3.53 -3.04,-7.13 -4.52,-10.78 z m -8.15,-21.9 -2.65,0.9 c 1.25,3.75 2.58,7.44 3.94,11.09 l 2.63,-0.98 c -1.35,-3.62 -2.66,-7.3 -3.92,-11.01 z m -6.83,-22.33 -2.71,0.74 c 1.03,3.8 2.11,7.56 3.26,11.3 l 2.69,-0.83 c -1.14,-3.7 -2.22,-7.44 -3.24,-11.21 z m -3.41,-13.76 -2.74,0.6 0.56,2.49 2.73,-0.65 -0.55,-2.44" /><path
         id="path332"
         style="fill:#ffffff;fill-opacity:1;fill-rule:nonzero;stroke:none"
         d="m 2262.49,3865.46 -2.77,0.51 c 0.36,1.95 0.73,3.9 1.13,5.84 l 2.75,-0.56 c -0.39,-1.93 -0.76,-3.86 -1.11,-5.79" /><path
         id="path334"
         style="fill:#ffffff;fill-opacity:1;fill-rule:nonzero;stroke:none"
         d="m 2360.32,4031.13 -2.77,0.52 c 0.71,3.76 1.15,5.8 1.15,5.8 l 2.75,-0.59 c -0.01,0 -0.43,-2.02 -1.13,-5.73" /><path
         id="path336"
         style="fill:#ffffff;fill-opacity:1;fill-rule:nonzero;stroke:none"
         d="m 2356.34,4007.48 -2.78,0.41 c 0.65,4.27 1.27,8.16 1.85,11.61 l 2.76,-0.46 c -0.57,-3.44 -1.19,-7.31 -1.83,-11.56 z m -3.13,-23.2 -2.79,0.33 c 0.48,4.07 0.98,7.96 1.48,11.66 l 2.79,-0.38 c -0.5,-3.68 -1,-7.56 -1.48,-11.61 z m -2.43,-23.28 -2.8,0.25 c 0.35,3.99 0.73,7.9 1.12,11.69 l 2.8,-0.29 c -0.39,-3.78 -0.77,-7.67 -1.12,-11.65 z m -1.67,-23.35 -2.81,0.15 c 0.22,3.97 0.47,7.88 0.75,11.73 l 2.79,-0.2 c -0.27,-3.84 -0.51,-7.74 -0.73,-11.68 z m -0.83,-23.37 -2.81,0.04 c 0.06,3.95 0.16,7.86 0.3,11.74 l 2.81,-0.1 c -0.14,-3.86 -0.24,-7.76 -0.3,-11.68 z m -2.65,-23.48 c -0.11,3.93 -0.18,7.85 -0.21,11.76 l 2.81,0.02 c 0.03,-3.88 0.1,-7.79 0.22,-11.69 l -2.82,-0.09" /><path
         id="path338"
         style="fill:#ffffff;fill-opacity:1;fill-rule:nonzero;stroke:none"
         d="m 2347.15,3865.59 c -0.18,1.96 -0.34,3.94 -0.49,5.91 l 2.8,0.2 c 0.15,-1.95 0.32,-3.91 0.49,-5.86 l -2.8,-0.25" /><path
         id="path340"
         style="fill:#ffffff;fill-opacity:1;fill-rule:nonzero;stroke:none"
         d="m 2343.16,4016.86 -2.54,1.18 c 3,6.51 4.88,10.06 4.96,10.21 l 2.48,-1.32 c -0.02,-0.04 -1.93,-3.63 -4.9,-10.07 z m -8.78,-20.62 -2.62,1.03 c 1.5,3.79 2.94,7.28 4.28,10.44 l 2.59,-1.1 c -1.34,-3.14 -2.77,-6.61 -4.25,-10.37 z m -7.71,-21.06 -2.67,0.89 c 1.26,3.72 2.52,7.26 3.76,10.64 l 2.63,-0.96 c -1.22,-3.36 -2.47,-6.89 -3.72,-10.57 z m -6.67,-21.42 -2.7,0.78 c 1.06,3.7 2.14,7.31 3.23,10.8 l 2.68,-0.83 c -1.08,-3.47 -2.15,-7.06 -3.21,-10.75 z m -5.6,-21.69 -2.73,0.62 c 0.85,3.73 1.76,7.38 2.68,10.96 l 2.72,-0.71 c -0.92,-3.55 -1.81,-7.18 -2.67,-10.87 z m -4.46,-21.98 -2.77,0.5 c 0.67,3.75 1.37,7.44 2.1,11.08 l 2.76,-0.56 c -0.74,-3.61 -1.43,-7.29 -2.09,-11.02 z m -3.24,-22.16 -2.79,0.33 c 0.44,3.77 0.93,7.5 1.47,11.18 l 2.78,-0.4 c -0.53,-3.66 -1.02,-7.36 -1.46,-11.11 z m -1.9,-22.31 -2.8,0.14 c 0.2,3.8 0.46,7.55 0.78,11.27 l 2.8,-0.24 c -0.32,-3.69 -0.58,-7.41 -0.78,-11.17 z m -3.26,-22.41 c -0.03,1.51 -0.04,3.01 -0.04,4.5 0,2.28 0.02,4.53 0.07,6.78 l 2.81,-0.05 c -0.04,-2.23 -0.07,-4.47 -0.07,-6.73 0,-1.48 0.01,-2.97 0.04,-4.46 z m 0.7,-17.06 c -0.14,1.93 -0.25,3.85 -0.35,5.78 l 2.81,0.13 c 0.09,-1.9 0.21,-3.81 0.34,-5.72 l -2.8,-0.19" /><path
         id="path342"
         style="fill:#ffd200;fill-opacity:1;fill-rule:nonzero;stroke:none"
         d="m 928.359,1475.26 c -1.211,0.75 -2.468,1.39 -3.668,2.15 -19.918,12.76 -38.359,27 -60.16,36.52 -0.918,0.4 -1.625,0.91 -2.445,1.36 -6.887,-11.12 -12.645,-21.67 -16.309,-30.42 0,0 31.547,-28.51 53.395,-40.64 0,0 13.441,11.17 24.379,18.48 1.32,4.31 2.949,8.47 4.808,12.55" /></g></g></svg>